<mxfile host="Electron" agent="Mozilla/5.0 (Windows NT 10.0; Win64; x64) AppleWebKit/537.36 (KHTML, like Gecko) draw.io/26.0.9 Chrome/128.0.6613.186 Electron/32.2.5 Safari/537.36" version="26.0.9" pages="3">
  <diagram name="ALU" id="GB39emdxDy5OW_C8HE9r">
    <mxGraphModel dx="1167" dy="699" grid="1" gridSize="10" guides="1" tooltips="1" connect="1" arrows="1" fold="1" page="1" pageScale="1" pageWidth="1200" pageHeight="1000" math="0" shadow="0">
      <root>
        <mxCell id="0" />
        <mxCell id="1" parent="0" />
        <mxCell id="S4wUbyauwCKhqa-NRHaI-137" value="" style="rounded=0;whiteSpace=wrap;html=1;fillColor=#dae8fc;strokeColor=#6c8ebf;" vertex="1" parent="1">
          <mxGeometry x="520" y="250" width="510" height="430" as="geometry" />
        </mxCell>
        <mxCell id="S4wUbyauwCKhqa-NRHaI-49" style="edgeStyle=orthogonalEdgeStyle;rounded=0;orthogonalLoop=1;jettySize=auto;html=1;" edge="1" parent="1" source="S4wUbyauwCKhqa-NRHaI-31">
          <mxGeometry relative="1" as="geometry">
            <mxPoint x="335" y="402" as="targetPoint" />
          </mxGeometry>
        </mxCell>
        <mxCell id="S4wUbyauwCKhqa-NRHaI-31" value="" style="shape=stencil(tZXRjoIwEEW/pq+bQsPq6wb1PyqOS2NtSdvV3b93oGCs0I0IJISkc7mHIb1DCcttySsgKS0J25A0TSjFO66vT2tuKyicL164EXwvwSvWGX2Cqzi4liFUCUa4WmVbQr/wmfpieaGVQojQygbKg44wLhR66a+Hta//C1YV8s/gwLRNNtXd68yPbAFqskSnIbPre95OZ6KGvSaL7NQ81ORNJsuxEgsxy/e8OH0b/aMOfVdUO2oDA8JdFlL6AYt9YMXruesJnXzWF/h/moawnVsK9eC+/wxaP5sKWI0FPGWMTvOvx9qz0P+ZTfOzsf7Q/sL+FVLbaHKwHgkPHguDmWs8vcQ2VX+ONIUb);whiteSpace=wrap;html=1;fillColor=light-dark(#A9C4EB,#EDEDED);fillStyle=auto;" vertex="1" parent="1">
          <mxGeometry x="145" y="332" width="70" height="140" as="geometry" />
        </mxCell>
        <mxCell id="S4wUbyauwCKhqa-NRHaI-32" value="" style="endArrow=classic;html=1;rounded=0;" edge="1" parent="1">
          <mxGeometry width="50" height="50" relative="1" as="geometry">
            <mxPoint x="75" y="349" as="sourcePoint" />
            <mxPoint x="145" y="349" as="targetPoint" />
          </mxGeometry>
        </mxCell>
        <mxCell id="S4wUbyauwCKhqa-NRHaI-35" value="" style="endArrow=classic;html=1;rounded=0;" edge="1" parent="1">
          <mxGeometry width="50" height="50" relative="1" as="geometry">
            <mxPoint x="75" y="462" as="sourcePoint" />
            <mxPoint x="145" y="462" as="targetPoint" />
          </mxGeometry>
        </mxCell>
        <mxCell id="S4wUbyauwCKhqa-NRHaI-36" value="A" style="text;html=1;align=center;verticalAlign=middle;resizable=0;points=[];autosize=1;strokeColor=none;fillColor=none;" vertex="1" parent="1">
          <mxGeometry x="50" y="334" width="30" height="30" as="geometry" />
        </mxCell>
        <mxCell id="S4wUbyauwCKhqa-NRHaI-37" value="B" style="text;html=1;align=center;verticalAlign=middle;resizable=0;points=[];autosize=1;strokeColor=none;fillColor=none;" vertex="1" parent="1">
          <mxGeometry x="50" y="442" width="30" height="30" as="geometry" />
        </mxCell>
        <mxCell id="S4wUbyauwCKhqa-NRHaI-38" value="" style="endArrow=none;html=1;rounded=0;" edge="1" parent="1">
          <mxGeometry width="50" height="50" relative="1" as="geometry">
            <mxPoint x="105" y="354" as="sourcePoint" />
            <mxPoint x="115" y="344" as="targetPoint" />
          </mxGeometry>
        </mxCell>
        <mxCell id="S4wUbyauwCKhqa-NRHaI-39" value="32" style="text;html=1;align=center;verticalAlign=middle;resizable=0;points=[];autosize=1;strokeColor=none;fillColor=none;" vertex="1" parent="1">
          <mxGeometry x="95" y="322" width="40" height="30" as="geometry" />
        </mxCell>
        <mxCell id="S4wUbyauwCKhqa-NRHaI-43" value="" style="endArrow=none;html=1;rounded=0;endSize=6;" edge="1" parent="1">
          <mxGeometry width="50" height="50" relative="1" as="geometry">
            <mxPoint x="95" y="472" as="sourcePoint" />
            <mxPoint x="115" y="452" as="targetPoint" />
            <Array as="points">
              <mxPoint x="105" y="462" />
            </Array>
          </mxGeometry>
        </mxCell>
        <mxCell id="S4wUbyauwCKhqa-NRHaI-44" value="32" style="text;html=1;align=center;verticalAlign=middle;resizable=0;points=[];autosize=1;strokeColor=none;fillColor=none;" vertex="1" parent="1">
          <mxGeometry x="85" y="430" width="40" height="30" as="geometry" />
        </mxCell>
        <mxCell id="S4wUbyauwCKhqa-NRHaI-45" value="" style="endArrow=classic;html=1;rounded=0;entryX=0.576;entryY=0.852;entryDx=0;entryDy=0;entryPerimeter=0;" edge="1" parent="1" target="S4wUbyauwCKhqa-NRHaI-31">
          <mxGeometry width="50" height="50" relative="1" as="geometry">
            <mxPoint x="185" y="542" as="sourcePoint" />
            <mxPoint x="215" y="529" as="targetPoint" />
          </mxGeometry>
        </mxCell>
        <mxCell id="S4wUbyauwCKhqa-NRHaI-46" value="" style="endArrow=none;html=1;rounded=0;" edge="1" parent="1">
          <mxGeometry width="50" height="50" relative="1" as="geometry">
            <mxPoint x="180" y="502" as="sourcePoint" />
            <mxPoint x="190" y="492" as="targetPoint" />
          </mxGeometry>
        </mxCell>
        <mxCell id="S4wUbyauwCKhqa-NRHaI-47" value="4" style="text;html=1;align=center;verticalAlign=middle;resizable=0;points=[];autosize=1;strokeColor=none;fillColor=none;" vertex="1" parent="1">
          <mxGeometry x="185" y="482" width="30" height="30" as="geometry" />
        </mxCell>
        <mxCell id="S4wUbyauwCKhqa-NRHaI-48" value="alu_op" style="text;html=1;align=center;verticalAlign=middle;resizable=0;points=[];autosize=1;strokeColor=none;fillColor=none;" vertex="1" parent="1">
          <mxGeometry x="155" y="540" width="60" height="30" as="geometry" />
        </mxCell>
        <mxCell id="S4wUbyauwCKhqa-NRHaI-50" value="out" style="text;html=1;align=center;verticalAlign=middle;resizable=0;points=[];autosize=1;strokeColor=none;fillColor=none;" vertex="1" parent="1">
          <mxGeometry x="325" y="387" width="40" height="30" as="geometry" />
        </mxCell>
        <mxCell id="S4wUbyauwCKhqa-NRHaI-53" value="" style="endArrow=none;html=1;rounded=0;" edge="1" parent="1">
          <mxGeometry width="50" height="50" relative="1" as="geometry">
            <mxPoint x="265" y="407" as="sourcePoint" />
            <mxPoint x="275" y="397" as="targetPoint" />
          </mxGeometry>
        </mxCell>
        <mxCell id="S4wUbyauwCKhqa-NRHaI-54" value="32" style="text;html=1;align=center;verticalAlign=middle;resizable=0;points=[];autosize=1;strokeColor=none;fillColor=none;" vertex="1" parent="1">
          <mxGeometry x="255" y="372" width="40" height="30" as="geometry" />
        </mxCell>
        <mxCell id="S4wUbyauwCKhqa-NRHaI-55" value="&lt;font style=&quot;font-size: 30px;&quot;&gt;Pinout Diagram&lt;/font&gt;" style="text;html=1;align=center;verticalAlign=middle;resizable=0;points=[];autosize=1;strokeColor=none;fillColor=none;" vertex="1" parent="1">
          <mxGeometry x="60" y="262" width="230" height="50" as="geometry" />
        </mxCell>
        <mxCell id="S4wUbyauwCKhqa-NRHaI-104" style="edgeStyle=orthogonalEdgeStyle;rounded=0;orthogonalLoop=1;jettySize=auto;html=1;entryX=0;entryY=0.5;entryDx=0;entryDy=0;" edge="1" parent="1" source="S4wUbyauwCKhqa-NRHaI-56" target="S4wUbyauwCKhqa-NRHaI-58">
          <mxGeometry relative="1" as="geometry" />
        </mxCell>
        <mxCell id="S4wUbyauwCKhqa-NRHaI-56" value="" style="verticalLabelPosition=bottom;shadow=0;dashed=0;align=center;html=1;verticalAlign=top;shape=mxgraph.electrical.logic_gates.logic_gate;operation=xor;negating=1;negSize=0.15;" vertex="1" parent="1">
          <mxGeometry x="660" y="370" width="30" height="20" as="geometry" />
        </mxCell>
        <mxCell id="S4wUbyauwCKhqa-NRHaI-57" value="" style="verticalLabelPosition=bottom;shadow=0;dashed=0;align=center;html=1;verticalAlign=top;shape=mxgraph.electrical.logic_gates.logic_gate;operation=xor;negating=1;negSize=0.15;" vertex="1" parent="1">
          <mxGeometry x="660" y="520" width="30" height="20" as="geometry" />
        </mxCell>
        <mxCell id="S4wUbyauwCKhqa-NRHaI-113" style="edgeStyle=orthogonalEdgeStyle;rounded=0;orthogonalLoop=1;jettySize=auto;html=1;entryX=0;entryY=0.5;entryDx=0;entryDy=0;" edge="1" parent="1" source="S4wUbyauwCKhqa-NRHaI-120" target="S4wUbyauwCKhqa-NRHaI-62">
          <mxGeometry relative="1" as="geometry">
            <Array as="points">
              <mxPoint x="790" y="380" />
              <mxPoint x="790" y="595" />
            </Array>
          </mxGeometry>
        </mxCell>
        <mxCell id="S4wUbyauwCKhqa-NRHaI-122" style="edgeStyle=orthogonalEdgeStyle;rounded=0;orthogonalLoop=1;jettySize=auto;html=1;" edge="1" parent="1" source="S4wUbyauwCKhqa-NRHaI-58">
          <mxGeometry relative="1" as="geometry">
            <mxPoint x="790" y="380" as="targetPoint" />
          </mxGeometry>
        </mxCell>
        <mxCell id="S4wUbyauwCKhqa-NRHaI-58" value="+" style="ellipse;whiteSpace=wrap;html=1;aspect=fixed;" vertex="1" parent="1">
          <mxGeometry x="730" y="365" width="30" height="30" as="geometry" />
        </mxCell>
        <mxCell id="S4wUbyauwCKhqa-NRHaI-114" style="edgeStyle=orthogonalEdgeStyle;rounded=0;orthogonalLoop=1;jettySize=auto;html=1;entryX=0.5;entryY=1;entryDx=0;entryDy=0;" edge="1" parent="1" source="S4wUbyauwCKhqa-NRHaI-59" target="S4wUbyauwCKhqa-NRHaI-62">
          <mxGeometry relative="1" as="geometry">
            <Array as="points">
              <mxPoint x="770" y="530" />
              <mxPoint x="770" y="630" />
              <mxPoint x="855" y="630" />
            </Array>
          </mxGeometry>
        </mxCell>
        <mxCell id="S4wUbyauwCKhqa-NRHaI-59" value="+" style="ellipse;whiteSpace=wrap;html=1;aspect=fixed;" vertex="1" parent="1">
          <mxGeometry x="730" y="515" width="30" height="30" as="geometry" />
        </mxCell>
        <mxCell id="S4wUbyauwCKhqa-NRHaI-60" value="+" style="ellipse;whiteSpace=wrap;html=1;aspect=fixed;" vertex="1" parent="1">
          <mxGeometry x="840" y="390" width="30" height="30" as="geometry" />
        </mxCell>
        <mxCell id="S4wUbyauwCKhqa-NRHaI-61" value="-" style="ellipse;whiteSpace=wrap;html=1;aspect=fixed;" vertex="1" parent="1">
          <mxGeometry x="840" y="475" width="30" height="30" as="geometry" />
        </mxCell>
        <mxCell id="S4wUbyauwCKhqa-NRHaI-62" value="&amp;gt;" style="ellipse;whiteSpace=wrap;html=1;aspect=fixed;" vertex="1" parent="1">
          <mxGeometry x="840" y="580" width="30" height="30" as="geometry" />
        </mxCell>
        <mxCell id="S4wUbyauwCKhqa-NRHaI-63" value="" style="endArrow=none;dashed=1;html=1;dashPattern=1 3;strokeWidth=2;rounded=0;" edge="1" parent="1">
          <mxGeometry width="50" height="50" relative="1" as="geometry">
            <mxPoint x="854.75" y="570" as="sourcePoint" />
            <mxPoint x="855" y="530" as="targetPoint" />
          </mxGeometry>
        </mxCell>
        <mxCell id="S4wUbyauwCKhqa-NRHaI-66" style="edgeStyle=orthogonalEdgeStyle;rounded=0;orthogonalLoop=1;jettySize=auto;html=1;" edge="1" parent="1" source="S4wUbyauwCKhqa-NRHaI-64">
          <mxGeometry relative="1" as="geometry">
            <mxPoint x="1110" y="480" as="targetPoint" />
          </mxGeometry>
        </mxCell>
        <mxCell id="S4wUbyauwCKhqa-NRHaI-64" value="" style="shape=trapezoid;perimeter=trapezoidPerimeter;whiteSpace=wrap;html=1;fixedSize=1;direction=south;" vertex="1" parent="1">
          <mxGeometry x="970" y="350" width="20" height="260" as="geometry" />
        </mxCell>
        <mxCell id="S4wUbyauwCKhqa-NRHaI-65" value="" style="endArrow=none;dashed=1;html=1;dashPattern=1 3;strokeWidth=2;rounded=0;" edge="1" parent="1">
          <mxGeometry width="50" height="50" relative="1" as="geometry">
            <mxPoint x="940" y="570" as="sourcePoint" />
            <mxPoint x="940" y="530" as="targetPoint" />
          </mxGeometry>
        </mxCell>
        <mxCell id="S4wUbyauwCKhqa-NRHaI-67" value="out" style="text;html=1;align=center;verticalAlign=middle;resizable=0;points=[];autosize=1;strokeColor=none;fillColor=none;" vertex="1" parent="1">
          <mxGeometry x="1110" y="465" width="40" height="30" as="geometry" />
        </mxCell>
        <mxCell id="S4wUbyauwCKhqa-NRHaI-68" style="edgeStyle=orthogonalEdgeStyle;rounded=0;orthogonalLoop=1;jettySize=auto;html=1;entryX=0.212;entryY=1.016;entryDx=0;entryDy=0;entryPerimeter=0;" edge="1" parent="1" source="S4wUbyauwCKhqa-NRHaI-60" target="S4wUbyauwCKhqa-NRHaI-64">
          <mxGeometry relative="1" as="geometry" />
        </mxCell>
        <mxCell id="S4wUbyauwCKhqa-NRHaI-69" style="edgeStyle=orthogonalEdgeStyle;rounded=0;orthogonalLoop=1;jettySize=auto;html=1;entryX=0.48;entryY=0.824;entryDx=0;entryDy=0;entryPerimeter=0;" edge="1" parent="1" source="S4wUbyauwCKhqa-NRHaI-61" target="S4wUbyauwCKhqa-NRHaI-64">
          <mxGeometry relative="1" as="geometry" />
        </mxCell>
        <mxCell id="S4wUbyauwCKhqa-NRHaI-70" style="edgeStyle=orthogonalEdgeStyle;rounded=0;orthogonalLoop=1;jettySize=auto;html=1;entryX=0.943;entryY=0.984;entryDx=0;entryDy=0;entryPerimeter=0;" edge="1" parent="1" source="S4wUbyauwCKhqa-NRHaI-62" target="S4wUbyauwCKhqa-NRHaI-64">
          <mxGeometry relative="1" as="geometry" />
        </mxCell>
        <mxCell id="S4wUbyauwCKhqa-NRHaI-71" value="" style="endArrow=none;html=1;rounded=0;" edge="1" parent="1">
          <mxGeometry width="50" height="50" relative="1" as="geometry">
            <mxPoint x="1060" y="485" as="sourcePoint" />
            <mxPoint x="1070" y="475" as="targetPoint" />
          </mxGeometry>
        </mxCell>
        <mxCell id="S4wUbyauwCKhqa-NRHaI-72" value="32" style="text;html=1;align=center;verticalAlign=middle;resizable=0;points=[];autosize=1;strokeColor=none;fillColor=none;" vertex="1" parent="1">
          <mxGeometry x="1050" y="450" width="40" height="30" as="geometry" />
        </mxCell>
        <mxCell id="S4wUbyauwCKhqa-NRHaI-77" value="" style="endArrow=none;html=1;rounded=0;" edge="1" parent="1">
          <mxGeometry width="50" height="50" relative="1" as="geometry">
            <mxPoint x="910" y="410" as="sourcePoint" />
            <mxPoint x="920" y="400" as="targetPoint" />
          </mxGeometry>
        </mxCell>
        <mxCell id="S4wUbyauwCKhqa-NRHaI-78" value="32" style="text;html=1;align=center;verticalAlign=middle;resizable=0;points=[];autosize=1;strokeColor=none;fillColor=none;" vertex="1" parent="1">
          <mxGeometry x="900" y="370" width="40" height="30" as="geometry" />
        </mxCell>
        <mxCell id="S4wUbyauwCKhqa-NRHaI-80" value="" style="endArrow=none;html=1;rounded=0;" edge="1" parent="1">
          <mxGeometry width="50" height="50" relative="1" as="geometry">
            <mxPoint x="940" y="480" as="sourcePoint" />
            <mxPoint x="950" y="470" as="targetPoint" />
          </mxGeometry>
        </mxCell>
        <mxCell id="S4wUbyauwCKhqa-NRHaI-81" value="32" style="text;html=1;align=center;verticalAlign=middle;resizable=0;points=[];autosize=1;strokeColor=none;fillColor=none;" vertex="1" parent="1">
          <mxGeometry x="920" y="445" width="40" height="30" as="geometry" />
        </mxCell>
        <mxCell id="S4wUbyauwCKhqa-NRHaI-82" value="" style="endArrow=none;html=1;rounded=0;" edge="1" parent="1">
          <mxGeometry width="50" height="50" relative="1" as="geometry">
            <mxPoint x="915" y="600" as="sourcePoint" />
            <mxPoint x="925" y="590" as="targetPoint" />
          </mxGeometry>
        </mxCell>
        <mxCell id="S4wUbyauwCKhqa-NRHaI-83" value="32" style="text;html=1;align=center;verticalAlign=middle;resizable=0;points=[];autosize=1;strokeColor=none;fillColor=none;" vertex="1" parent="1">
          <mxGeometry x="900" y="570" width="40" height="30" as="geometry" />
        </mxCell>
        <mxCell id="S4wUbyauwCKhqa-NRHaI-84" value="A" style="text;html=1;align=center;verticalAlign=middle;resizable=0;points=[];autosize=1;strokeColor=none;fillColor=none;" vertex="1" parent="1">
          <mxGeometry x="415" y="415" width="30" height="30" as="geometry" />
        </mxCell>
        <mxCell id="S4wUbyauwCKhqa-NRHaI-87" style="edgeStyle=orthogonalEdgeStyle;rounded=0;orthogonalLoop=1;jettySize=auto;html=1;entryX=0.5;entryY=1;entryDx=0;entryDy=0;" edge="1" parent="1" source="S4wUbyauwCKhqa-NRHaI-130" target="S4wUbyauwCKhqa-NRHaI-60">
          <mxGeometry relative="1" as="geometry">
            <Array as="points">
              <mxPoint x="830" y="490" />
              <mxPoint x="830" y="440" />
              <mxPoint x="855" y="440" />
            </Array>
          </mxGeometry>
        </mxCell>
        <mxCell id="S4wUbyauwCKhqa-NRHaI-99" style="edgeStyle=orthogonalEdgeStyle;rounded=0;orthogonalLoop=1;jettySize=auto;html=1;entryX=0;entryY=0.5;entryDx=0;entryDy=0;" edge="1" parent="1" source="S4wUbyauwCKhqa-NRHaI-85" target="S4wUbyauwCKhqa-NRHaI-97">
          <mxGeometry relative="1" as="geometry" />
        </mxCell>
        <mxCell id="S4wUbyauwCKhqa-NRHaI-85" value="B" style="text;html=1;align=center;verticalAlign=middle;resizable=0;points=[];autosize=1;strokeColor=none;fillColor=none;" vertex="1" parent="1">
          <mxGeometry x="415" y="475" width="30" height="30" as="geometry" />
        </mxCell>
        <mxCell id="S4wUbyauwCKhqa-NRHaI-91" style="edgeStyle=orthogonalEdgeStyle;rounded=0;orthogonalLoop=1;jettySize=auto;html=1;" edge="1" parent="1" source="S4wUbyauwCKhqa-NRHaI-89">
          <mxGeometry relative="1" as="geometry">
            <mxPoint x="640" y="430" as="targetPoint" />
            <Array as="points">
              <mxPoint x="620" y="430" />
            </Array>
          </mxGeometry>
        </mxCell>
        <mxCell id="S4wUbyauwCKhqa-NRHaI-92" style="edgeStyle=orthogonalEdgeStyle;rounded=0;orthogonalLoop=1;jettySize=auto;html=1;entryX=0;entryY=0.75;entryDx=0;entryDy=0;entryPerimeter=0;" edge="1" parent="1" source="S4wUbyauwCKhqa-NRHaI-89" target="S4wUbyauwCKhqa-NRHaI-56">
          <mxGeometry relative="1" as="geometry">
            <Array as="points">
              <mxPoint x="642" y="385" />
            </Array>
          </mxGeometry>
        </mxCell>
        <mxCell id="S4wUbyauwCKhqa-NRHaI-94" value="" style="edgeStyle=orthogonalEdgeStyle;rounded=0;orthogonalLoop=1;jettySize=auto;html=1;" edge="1" parent="1" source="S4wUbyauwCKhqa-NRHaI-84" target="S4wUbyauwCKhqa-NRHaI-89">
          <mxGeometry relative="1" as="geometry">
            <mxPoint x="590" y="430" as="sourcePoint" />
            <mxPoint x="640" y="430" as="targetPoint" />
            <Array as="points" />
          </mxGeometry>
        </mxCell>
        <mxCell id="S4wUbyauwCKhqa-NRHaI-127" style="edgeStyle=orthogonalEdgeStyle;rounded=0;orthogonalLoop=1;jettySize=auto;html=1;entryX=0;entryY=0.5;entryDx=0;entryDy=0;" edge="1" parent="1" source="S4wUbyauwCKhqa-NRHaI-89" target="S4wUbyauwCKhqa-NRHaI-125">
          <mxGeometry relative="1" as="geometry">
            <Array as="points">
              <mxPoint x="800" y="430" />
              <mxPoint x="800" y="362" />
            </Array>
          </mxGeometry>
        </mxCell>
        <mxCell id="S4wUbyauwCKhqa-NRHaI-89" value="" style="shape=ellipse;fillColor=#000000;strokeColor=none;html=1;sketch=0;strokeWidth=1;rotation=0;" vertex="1" parent="1">
          <mxGeometry x="640" y="428" width="4" height="4" as="geometry" />
        </mxCell>
        <mxCell id="S4wUbyauwCKhqa-NRHaI-95" value="32&#39;hFFFFFF" style="text;html=1;align=center;verticalAlign=middle;resizable=0;points=[];autosize=1;strokeColor=none;fillColor=none;" vertex="1" parent="1">
          <mxGeometry x="554" y="360" width="90" height="30" as="geometry" />
        </mxCell>
        <mxCell id="S4wUbyauwCKhqa-NRHaI-96" style="edgeStyle=orthogonalEdgeStyle;rounded=0;orthogonalLoop=1;jettySize=auto;html=1;entryX=0;entryY=0.25;entryDx=0;entryDy=0;entryPerimeter=0;" edge="1" parent="1" source="S4wUbyauwCKhqa-NRHaI-95" target="S4wUbyauwCKhqa-NRHaI-56">
          <mxGeometry relative="1" as="geometry">
            <mxPoint x="640" y="375" as="sourcePoint" />
            <Array as="points" />
          </mxGeometry>
        </mxCell>
        <mxCell id="S4wUbyauwCKhqa-NRHaI-132" style="edgeStyle=orthogonalEdgeStyle;rounded=0;orthogonalLoop=1;jettySize=auto;html=1;" edge="1" parent="1" source="S4wUbyauwCKhqa-NRHaI-97">
          <mxGeometry relative="1" as="geometry">
            <mxPoint x="830" y="490" as="targetPoint" />
          </mxGeometry>
        </mxCell>
        <mxCell id="S4wUbyauwCKhqa-NRHaI-97" value="" style="shape=ellipse;fillColor=#000000;strokeColor=none;html=1;sketch=0;strokeWidth=1;rotation=0;" vertex="1" parent="1">
          <mxGeometry x="640" y="488" width="4" height="4" as="geometry" />
        </mxCell>
        <mxCell id="S4wUbyauwCKhqa-NRHaI-100" style="edgeStyle=orthogonalEdgeStyle;rounded=0;orthogonalLoop=1;jettySize=auto;html=1;entryX=0;entryY=0.25;entryDx=0;entryDy=0;entryPerimeter=0;exitX=0.502;exitY=0.5;exitDx=0;exitDy=0;exitPerimeter=0;" edge="1" parent="1" source="S4wUbyauwCKhqa-NRHaI-97" target="S4wUbyauwCKhqa-NRHaI-57">
          <mxGeometry relative="1" as="geometry">
            <Array as="points">
              <mxPoint x="642" y="525" />
            </Array>
          </mxGeometry>
        </mxCell>
        <mxCell id="S4wUbyauwCKhqa-NRHaI-101" value="32&#39;hFFFFFF" style="text;html=1;align=center;verticalAlign=middle;resizable=0;points=[];autosize=1;strokeColor=none;fillColor=none;" vertex="1" parent="1">
          <mxGeometry x="545" y="520" width="90" height="30" as="geometry" />
        </mxCell>
        <mxCell id="S4wUbyauwCKhqa-NRHaI-102" style="edgeStyle=orthogonalEdgeStyle;rounded=0;orthogonalLoop=1;jettySize=auto;html=1;entryX=0;entryY=0.75;entryDx=0;entryDy=0;entryPerimeter=0;exitX=0.944;exitY=0.5;exitDx=0;exitDy=0;exitPerimeter=0;" edge="1" parent="1" source="S4wUbyauwCKhqa-NRHaI-101" target="S4wUbyauwCKhqa-NRHaI-57">
          <mxGeometry relative="1" as="geometry" />
        </mxCell>
        <mxCell id="S4wUbyauwCKhqa-NRHaI-103" style="edgeStyle=orthogonalEdgeStyle;rounded=0;orthogonalLoop=1;jettySize=auto;html=1;entryX=0;entryY=0.5;entryDx=0;entryDy=0;" edge="1" parent="1" source="S4wUbyauwCKhqa-NRHaI-57" target="S4wUbyauwCKhqa-NRHaI-59">
          <mxGeometry relative="1" as="geometry" />
        </mxCell>
        <mxCell id="S4wUbyauwCKhqa-NRHaI-108" style="edgeStyle=orthogonalEdgeStyle;rounded=0;orthogonalLoop=1;jettySize=auto;html=1;entryX=0.5;entryY=0;entryDx=0;entryDy=0;" edge="1" parent="1" source="S4wUbyauwCKhqa-NRHaI-105" target="S4wUbyauwCKhqa-NRHaI-58">
          <mxGeometry relative="1" as="geometry" />
        </mxCell>
        <mxCell id="S4wUbyauwCKhqa-NRHaI-105" value="1" style="text;html=1;align=center;verticalAlign=middle;resizable=0;points=[];autosize=1;strokeColor=none;fillColor=none;" vertex="1" parent="1">
          <mxGeometry x="730" y="310" width="30" height="30" as="geometry" />
        </mxCell>
        <mxCell id="S4wUbyauwCKhqa-NRHaI-107" style="edgeStyle=orthogonalEdgeStyle;rounded=0;orthogonalLoop=1;jettySize=auto;html=1;entryX=0.5;entryY=1;entryDx=0;entryDy=0;" edge="1" parent="1" source="S4wUbyauwCKhqa-NRHaI-106" target="S4wUbyauwCKhqa-NRHaI-59">
          <mxGeometry relative="1" as="geometry" />
        </mxCell>
        <mxCell id="S4wUbyauwCKhqa-NRHaI-106" value="1" style="text;html=1;align=center;verticalAlign=middle;resizable=0;points=[];autosize=1;strokeColor=none;fillColor=none;" vertex="1" parent="1">
          <mxGeometry x="730" y="570" width="30" height="30" as="geometry" />
        </mxCell>
        <mxCell id="S4wUbyauwCKhqa-NRHaI-109" value="" style="endArrow=none;html=1;rounded=0;" edge="1" parent="1">
          <mxGeometry width="50" height="50" relative="1" as="geometry">
            <mxPoint x="490" y="435" as="sourcePoint" />
            <mxPoint x="500" y="425" as="targetPoint" />
          </mxGeometry>
        </mxCell>
        <mxCell id="S4wUbyauwCKhqa-NRHaI-110" value="32" style="text;html=1;align=center;verticalAlign=middle;resizable=0;points=[];autosize=1;strokeColor=none;fillColor=none;" vertex="1" parent="1">
          <mxGeometry x="480" y="395" width="40" height="30" as="geometry" />
        </mxCell>
        <mxCell id="S4wUbyauwCKhqa-NRHaI-111" value="" style="endArrow=none;html=1;rounded=0;" edge="1" parent="1">
          <mxGeometry width="50" height="50" relative="1" as="geometry">
            <mxPoint x="490" y="495" as="sourcePoint" />
            <mxPoint x="500" y="485" as="targetPoint" />
          </mxGeometry>
        </mxCell>
        <mxCell id="S4wUbyauwCKhqa-NRHaI-112" value="32" style="text;html=1;align=center;verticalAlign=middle;resizable=0;points=[];autosize=1;strokeColor=none;fillColor=none;" vertex="1" parent="1">
          <mxGeometry x="480" y="455" width="40" height="30" as="geometry" />
        </mxCell>
        <mxCell id="S4wUbyauwCKhqa-NRHaI-115" value="" style="endArrow=none;html=1;rounded=0;" edge="1" parent="1">
          <mxGeometry width="50" height="50" relative="1" as="geometry">
            <mxPoint x="780" y="540" as="sourcePoint" />
            <mxPoint x="800" y="525" as="targetPoint" />
          </mxGeometry>
        </mxCell>
        <mxCell id="S4wUbyauwCKhqa-NRHaI-116" value="32" style="text;html=1;align=center;verticalAlign=middle;resizable=0;points=[];autosize=1;strokeColor=none;fillColor=none;" vertex="1" parent="1">
          <mxGeometry x="780" y="520" width="40" height="30" as="geometry" />
        </mxCell>
        <mxCell id="S4wUbyauwCKhqa-NRHaI-117" value="" style="endArrow=none;html=1;rounded=0;" edge="1" parent="1">
          <mxGeometry width="50" height="50" relative="1" as="geometry">
            <mxPoint x="760" y="620" as="sourcePoint" />
            <mxPoint x="780" y="600" as="targetPoint" />
          </mxGeometry>
        </mxCell>
        <mxCell id="S4wUbyauwCKhqa-NRHaI-118" value="32" style="text;html=1;align=center;verticalAlign=middle;resizable=0;points=[];autosize=1;strokeColor=none;fillColor=none;" vertex="1" parent="1">
          <mxGeometry x="725" y="600" width="40" height="30" as="geometry" />
        </mxCell>
        <mxCell id="S4wUbyauwCKhqa-NRHaI-119" value="uB" style="text;html=1;align=center;verticalAlign=middle;resizable=0;points=[];autosize=1;strokeColor=none;fillColor=none;" vertex="1" parent="1">
          <mxGeometry x="790" y="628" width="40" height="30" as="geometry" />
        </mxCell>
        <mxCell id="S4wUbyauwCKhqa-NRHaI-120" value="uA" style="text;html=1;align=center;verticalAlign=middle;resizable=0;points=[];autosize=1;strokeColor=none;fillColor=none;" vertex="1" parent="1">
          <mxGeometry x="790" y="570" width="40" height="30" as="geometry" />
        </mxCell>
        <mxCell id="S4wUbyauwCKhqa-NRHaI-128" style="edgeStyle=orthogonalEdgeStyle;rounded=0;orthogonalLoop=1;jettySize=auto;html=1;entryX=0.5;entryY=0;entryDx=0;entryDy=0;" edge="1" parent="1" source="S4wUbyauwCKhqa-NRHaI-125" target="S4wUbyauwCKhqa-NRHaI-61">
          <mxGeometry relative="1" as="geometry">
            <Array as="points">
              <mxPoint x="822" y="450" />
              <mxPoint x="855" y="450" />
            </Array>
          </mxGeometry>
        </mxCell>
        <mxCell id="S4wUbyauwCKhqa-NRHaI-129" style="edgeStyle=orthogonalEdgeStyle;rounded=0;orthogonalLoop=1;jettySize=auto;html=1;entryX=0.5;entryY=0;entryDx=0;entryDy=0;" edge="1" parent="1" source="S4wUbyauwCKhqa-NRHaI-125" target="S4wUbyauwCKhqa-NRHaI-60">
          <mxGeometry relative="1" as="geometry" />
        </mxCell>
        <mxCell id="S4wUbyauwCKhqa-NRHaI-125" value="" style="shape=ellipse;fillColor=#000000;strokeColor=none;html=1;sketch=0;strokeWidth=1;rotation=0;" vertex="1" parent="1">
          <mxGeometry x="820" y="360" width="4" height="4" as="geometry" />
        </mxCell>
        <mxCell id="S4wUbyauwCKhqa-NRHaI-135" style="edgeStyle=orthogonalEdgeStyle;rounded=0;orthogonalLoop=1;jettySize=auto;html=1;entryX=0.5;entryY=1;entryDx=0;entryDy=0;" edge="1" parent="1" source="S4wUbyauwCKhqa-NRHaI-130" target="S4wUbyauwCKhqa-NRHaI-61">
          <mxGeometry relative="1" as="geometry">
            <Array as="points">
              <mxPoint x="830" y="490" />
              <mxPoint x="830" y="520" />
              <mxPoint x="855" y="520" />
            </Array>
          </mxGeometry>
        </mxCell>
        <mxCell id="S4wUbyauwCKhqa-NRHaI-130" value="" style="shape=ellipse;fillColor=#000000;strokeColor=none;html=1;sketch=0;strokeWidth=1;rotation=0;" vertex="1" parent="1">
          <mxGeometry x="824" y="488" width="4" height="4" as="geometry" />
        </mxCell>
        <mxCell id="S4wUbyauwCKhqa-NRHaI-138" value="&lt;font style=&quot;font-size: 30px;&quot;&gt;&lt;b&gt;ALU&lt;/b&gt;&lt;/font&gt;" style="text;html=1;align=center;verticalAlign=middle;whiteSpace=wrap;rounded=0;" vertex="1" parent="1">
          <mxGeometry x="740" y="270" width="60" height="30" as="geometry" />
        </mxCell>
      </root>
    </mxGraphModel>
  </diagram>
  <diagram id="O1nije5yl5hJGZRxxu8Z" name="Register File">
    <mxGraphModel dx="1909" dy="1144" grid="1" gridSize="10" guides="1" tooltips="1" connect="1" arrows="1" fold="1" page="1" pageScale="1" pageWidth="2000" pageHeight="2000" math="0" shadow="0">
      <root>
        <mxCell id="0" />
        <mxCell id="1" parent="0" />
        <mxCell id="GM3wIo_nSg7rm5uNo50x-19" value="" style="group" vertex="1" connectable="0" parent="1">
          <mxGeometry x="160" y="88" width="500" height="400" as="geometry" />
        </mxCell>
        <mxCell id="i6QVT4nO2AKiskU-5bBG-43" style="edgeStyle=orthogonalEdgeStyle;rounded=0;orthogonalLoop=1;jettySize=auto;html=1;" edge="1" parent="GM3wIo_nSg7rm5uNo50x-19" source="i6QVT4nO2AKiskU-5bBG-22" target="i6QVT4nO2AKiskU-5bBG-40">
          <mxGeometry relative="1" as="geometry">
            <Array as="points">
              <mxPoint x="410" y="115" />
              <mxPoint x="410" y="115" />
            </Array>
          </mxGeometry>
        </mxCell>
        <mxCell id="i6QVT4nO2AKiskU-5bBG-22" value="&lt;font style=&quot;font-size: 26px;&quot;&gt;Register File&lt;/font&gt;" style="whiteSpace=wrap;html=1;aspect=fixed;" vertex="1" parent="GM3wIo_nSg7rm5uNo50x-19">
          <mxGeometry x="170" y="92" width="220" height="220" as="geometry" />
        </mxCell>
        <mxCell id="i6QVT4nO2AKiskU-5bBG-23" value="" style="triangle;whiteSpace=wrap;html=1;" vertex="1" parent="GM3wIo_nSg7rm5uNo50x-19">
          <mxGeometry x="170" y="252" width="30" height="50" as="geometry" />
        </mxCell>
        <mxCell id="i6QVT4nO2AKiskU-5bBG-24" value="&lt;font&gt;raddr1&lt;/font&gt;" style="text;html=1;align=center;verticalAlign=middle;resizable=0;points=[];autosize=1;strokeColor=none;fillColor=none;" vertex="1" parent="GM3wIo_nSg7rm5uNo50x-19">
          <mxGeometry y="100" width="60" height="30" as="geometry" />
        </mxCell>
        <mxCell id="i6QVT4nO2AKiskU-5bBG-25" value="raddr2" style="text;html=1;align=center;verticalAlign=middle;resizable=0;points=[];autosize=1;strokeColor=none;fillColor=none;" vertex="1" parent="GM3wIo_nSg7rm5uNo50x-19">
          <mxGeometry y="142" width="60" height="30" as="geometry" />
        </mxCell>
        <mxCell id="i6QVT4nO2AKiskU-5bBG-26" value="waddr" style="text;html=1;align=center;verticalAlign=middle;resizable=0;points=[];autosize=1;strokeColor=none;fillColor=none;" vertex="1" parent="GM3wIo_nSg7rm5uNo50x-19">
          <mxGeometry y="180" width="60" height="30" as="geometry" />
        </mxCell>
        <mxCell id="i6QVT4nO2AKiskU-5bBG-27" value="reset_n" style="text;html=1;align=center;verticalAlign=middle;resizable=0;points=[];autosize=1;strokeColor=none;fillColor=none;" vertex="1" parent="GM3wIo_nSg7rm5uNo50x-19">
          <mxGeometry y="220" width="60" height="30" as="geometry" />
        </mxCell>
        <mxCell id="i6QVT4nO2AKiskU-5bBG-28" value="clk" style="text;html=1;align=center;verticalAlign=middle;resizable=0;points=[];autosize=1;strokeColor=none;fillColor=none;" vertex="1" parent="GM3wIo_nSg7rm5uNo50x-19">
          <mxGeometry x="10" y="260" width="40" height="30" as="geometry" />
        </mxCell>
        <mxCell id="i6QVT4nO2AKiskU-5bBG-29" value="reg_wr" style="text;html=1;align=center;verticalAlign=middle;resizable=0;points=[];autosize=1;strokeColor=none;fillColor=none;" vertex="1" parent="GM3wIo_nSg7rm5uNo50x-19">
          <mxGeometry x="200" y="370" width="60" height="30" as="geometry" />
        </mxCell>
        <mxCell id="i6QVT4nO2AKiskU-5bBG-30" value="wdata" style="text;html=1;align=center;verticalAlign=middle;resizable=0;points=[];autosize=1;strokeColor=none;fillColor=none;" vertex="1" parent="GM3wIo_nSg7rm5uNo50x-19">
          <mxGeometry x="280" y="370" width="60" height="30" as="geometry" />
        </mxCell>
        <mxCell id="i6QVT4nO2AKiskU-5bBG-32" style="edgeStyle=orthogonalEdgeStyle;rounded=0;orthogonalLoop=1;jettySize=auto;html=1;entryX=-0.004;entryY=0.108;entryDx=0;entryDy=0;entryPerimeter=0;" edge="1" parent="GM3wIo_nSg7rm5uNo50x-19" source="i6QVT4nO2AKiskU-5bBG-24" target="i6QVT4nO2AKiskU-5bBG-22">
          <mxGeometry relative="1" as="geometry" />
        </mxCell>
        <mxCell id="i6QVT4nO2AKiskU-5bBG-33" style="edgeStyle=orthogonalEdgeStyle;rounded=0;orthogonalLoop=1;jettySize=auto;html=1;" edge="1" parent="GM3wIo_nSg7rm5uNo50x-19" source="i6QVT4nO2AKiskU-5bBG-25">
          <mxGeometry relative="1" as="geometry">
            <mxPoint x="170" y="157" as="targetPoint" />
          </mxGeometry>
        </mxCell>
        <mxCell id="i6QVT4nO2AKiskU-5bBG-34" style="edgeStyle=orthogonalEdgeStyle;rounded=0;orthogonalLoop=1;jettySize=auto;html=1;entryX=-0.004;entryY=0.466;entryDx=0;entryDy=0;entryPerimeter=0;" edge="1" parent="GM3wIo_nSg7rm5uNo50x-19" source="i6QVT4nO2AKiskU-5bBG-26" target="i6QVT4nO2AKiskU-5bBG-22">
          <mxGeometry relative="1" as="geometry" />
        </mxCell>
        <mxCell id="i6QVT4nO2AKiskU-5bBG-35" style="edgeStyle=orthogonalEdgeStyle;rounded=0;orthogonalLoop=1;jettySize=auto;html=1;entryX=-0.005;entryY=0.649;entryDx=0;entryDy=0;entryPerimeter=0;" edge="1" parent="GM3wIo_nSg7rm5uNo50x-19" source="i6QVT4nO2AKiskU-5bBG-27" target="i6QVT4nO2AKiskU-5bBG-22">
          <mxGeometry relative="1" as="geometry" />
        </mxCell>
        <mxCell id="i6QVT4nO2AKiskU-5bBG-36" style="edgeStyle=orthogonalEdgeStyle;rounded=0;orthogonalLoop=1;jettySize=auto;html=1;entryX=0.039;entryY=0.45;entryDx=0;entryDy=0;entryPerimeter=0;" edge="1" parent="GM3wIo_nSg7rm5uNo50x-19" source="i6QVT4nO2AKiskU-5bBG-28" target="i6QVT4nO2AKiskU-5bBG-23">
          <mxGeometry relative="1" as="geometry" />
        </mxCell>
        <mxCell id="i6QVT4nO2AKiskU-5bBG-37" style="edgeStyle=orthogonalEdgeStyle;rounded=0;orthogonalLoop=1;jettySize=auto;html=1;entryX=0.273;entryY=1;entryDx=0;entryDy=0;entryPerimeter=0;" edge="1" parent="GM3wIo_nSg7rm5uNo50x-19" source="i6QVT4nO2AKiskU-5bBG-29" target="i6QVT4nO2AKiskU-5bBG-22">
          <mxGeometry relative="1" as="geometry" />
        </mxCell>
        <mxCell id="i6QVT4nO2AKiskU-5bBG-38" style="edgeStyle=orthogonalEdgeStyle;rounded=0;orthogonalLoop=1;jettySize=auto;html=1;entryX=0.639;entryY=1;entryDx=0;entryDy=0;entryPerimeter=0;" edge="1" parent="GM3wIo_nSg7rm5uNo50x-19" source="i6QVT4nO2AKiskU-5bBG-30" target="i6QVT4nO2AKiskU-5bBG-22">
          <mxGeometry relative="1" as="geometry" />
        </mxCell>
        <mxCell id="i6QVT4nO2AKiskU-5bBG-40" value="rdata1" style="text;html=1;align=center;verticalAlign=middle;resizable=0;points=[];autosize=1;strokeColor=none;fillColor=none;" vertex="1" parent="GM3wIo_nSg7rm5uNo50x-19">
          <mxGeometry x="440" y="100" width="60" height="30" as="geometry" />
        </mxCell>
        <mxCell id="i6QVT4nO2AKiskU-5bBG-41" value="rdata2" style="text;html=1;align=center;verticalAlign=middle;resizable=0;points=[];autosize=1;strokeColor=none;fillColor=none;" vertex="1" parent="GM3wIo_nSg7rm5uNo50x-19">
          <mxGeometry x="440" y="250" width="60" height="30" as="geometry" />
        </mxCell>
        <mxCell id="i6QVT4nO2AKiskU-5bBG-44" style="edgeStyle=orthogonalEdgeStyle;rounded=0;orthogonalLoop=1;jettySize=auto;html=1;entryX=0.039;entryY=0.567;entryDx=0;entryDy=0;entryPerimeter=0;" edge="1" parent="GM3wIo_nSg7rm5uNo50x-19" source="i6QVT4nO2AKiskU-5bBG-22" target="i6QVT4nO2AKiskU-5bBG-41">
          <mxGeometry relative="1" as="geometry">
            <Array as="points">
              <mxPoint x="400" y="267" />
              <mxPoint x="400" y="267" />
            </Array>
          </mxGeometry>
        </mxCell>
        <mxCell id="i6QVT4nO2AKiskU-5bBG-45" value="&lt;font style=&quot;font-size: 30px;&quot;&gt;Pinout Diagram&lt;/font&gt;" style="text;html=1;align=center;verticalAlign=middle;resizable=0;points=[];autosize=1;strokeColor=none;fillColor=none;" vertex="1" parent="GM3wIo_nSg7rm5uNo50x-19">
          <mxGeometry x="160" width="230" height="50" as="geometry" />
        </mxCell>
        <mxCell id="GM3wIo_nSg7rm5uNo50x-1" value="" style="endArrow=none;html=1;rounded=0;" edge="1" parent="GM3wIo_nSg7rm5uNo50x-19">
          <mxGeometry width="50" height="50" relative="1" as="geometry">
            <mxPoint x="100" y="125" as="sourcePoint" />
            <mxPoint x="110" y="105" as="targetPoint" />
          </mxGeometry>
        </mxCell>
        <mxCell id="GM3wIo_nSg7rm5uNo50x-2" value="5" style="text;html=1;align=center;verticalAlign=middle;resizable=0;points=[];autosize=1;strokeColor=none;fillColor=none;" vertex="1" parent="GM3wIo_nSg7rm5uNo50x-19">
          <mxGeometry x="95" y="82" width="30" height="30" as="geometry" />
        </mxCell>
        <mxCell id="GM3wIo_nSg7rm5uNo50x-3" value="" style="endArrow=none;html=1;rounded=0;" edge="1" parent="GM3wIo_nSg7rm5uNo50x-19">
          <mxGeometry width="50" height="50" relative="1" as="geometry">
            <mxPoint x="100" y="165" as="sourcePoint" />
            <mxPoint x="110" y="145" as="targetPoint" />
          </mxGeometry>
        </mxCell>
        <mxCell id="GM3wIo_nSg7rm5uNo50x-4" value="5" style="text;html=1;align=center;verticalAlign=middle;resizable=0;points=[];autosize=1;strokeColor=none;fillColor=none;" vertex="1" parent="GM3wIo_nSg7rm5uNo50x-19">
          <mxGeometry x="95" y="122" width="30" height="30" as="geometry" />
        </mxCell>
        <mxCell id="GM3wIo_nSg7rm5uNo50x-5" value="" style="endArrow=none;html=1;rounded=0;" edge="1" parent="GM3wIo_nSg7rm5uNo50x-19">
          <mxGeometry width="50" height="50" relative="1" as="geometry">
            <mxPoint x="400" y="125" as="sourcePoint" />
            <mxPoint x="410" y="105" as="targetPoint" />
          </mxGeometry>
        </mxCell>
        <mxCell id="GM3wIo_nSg7rm5uNo50x-6" value="32" style="text;html=1;align=center;verticalAlign=middle;resizable=0;points=[];autosize=1;strokeColor=none;fillColor=none;" vertex="1" parent="GM3wIo_nSg7rm5uNo50x-19">
          <mxGeometry x="390" y="82" width="40" height="30" as="geometry" />
        </mxCell>
        <mxCell id="GM3wIo_nSg7rm5uNo50x-7" value="" style="endArrow=none;html=1;rounded=0;" edge="1" parent="GM3wIo_nSg7rm5uNo50x-19">
          <mxGeometry width="50" height="50" relative="1" as="geometry">
            <mxPoint x="400" y="280" as="sourcePoint" />
            <mxPoint x="410" y="260" as="targetPoint" />
          </mxGeometry>
        </mxCell>
        <mxCell id="GM3wIo_nSg7rm5uNo50x-8" value="32" style="text;html=1;align=center;verticalAlign=middle;resizable=0;points=[];autosize=1;strokeColor=none;fillColor=none;" vertex="1" parent="GM3wIo_nSg7rm5uNo50x-19">
          <mxGeometry x="390" y="237" width="40" height="30" as="geometry" />
        </mxCell>
        <mxCell id="GM3wIo_nSg7rm5uNo50x-12" value="" style="endArrow=none;html=1;rounded=0;" edge="1" parent="GM3wIo_nSg7rm5uNo50x-19">
          <mxGeometry width="50" height="50" relative="1" as="geometry">
            <mxPoint x="100" y="205" as="sourcePoint" />
            <mxPoint x="110" y="185" as="targetPoint" />
          </mxGeometry>
        </mxCell>
        <mxCell id="GM3wIo_nSg7rm5uNo50x-13" value="5" style="text;html=1;align=center;verticalAlign=middle;resizable=0;points=[];autosize=1;strokeColor=none;fillColor=none;" vertex="1" parent="GM3wIo_nSg7rm5uNo50x-19">
          <mxGeometry x="95" y="162" width="30" height="30" as="geometry" />
        </mxCell>
        <mxCell id="GM3wIo_nSg7rm5uNo50x-14" value="" style="endArrow=none;html=1;rounded=0;" edge="1" parent="GM3wIo_nSg7rm5uNo50x-19">
          <mxGeometry width="50" height="50" relative="1" as="geometry">
            <mxPoint x="305" y="362" as="sourcePoint" />
            <mxPoint x="315" y="342" as="targetPoint" />
          </mxGeometry>
        </mxCell>
        <mxCell id="GM3wIo_nSg7rm5uNo50x-15" value="32" style="text;html=1;align=center;verticalAlign=middle;resizable=0;points=[];autosize=1;strokeColor=none;fillColor=none;" vertex="1" parent="GM3wIo_nSg7rm5uNo50x-19">
          <mxGeometry x="310" y="332" width="40" height="30" as="geometry" />
        </mxCell>
        <mxCell id="NNrM0pU2OySrq2_Yb7bF-1" value="" style="group" vertex="1" connectable="0" parent="1">
          <mxGeometry x="150" y="590" width="1210" height="1280" as="geometry" />
        </mxCell>
        <mxCell id="GM3wIo_nSg7rm5uNo50x-177" value="" style="rounded=0;whiteSpace=wrap;html=1;fillColor=#dae8fc;strokeColor=#6c8ebf;" vertex="1" parent="NNrM0pU2OySrq2_Yb7bF-1">
          <mxGeometry x="160" y="162" width="880" height="958" as="geometry" />
        </mxCell>
        <mxCell id="GM3wIo_nSg7rm5uNo50x-113" style="edgeStyle=orthogonalEdgeStyle;rounded=0;orthogonalLoop=1;jettySize=auto;html=1;entryX=0;entryY=0.5;entryDx=0;entryDy=0;exitX=1.086;exitY=0.492;exitDx=0;exitDy=0;exitPerimeter=0;" edge="1" parent="NNrM0pU2OySrq2_Yb7bF-1" source="GM3wIo_nSg7rm5uNo50x-20" target="GM3wIo_nSg7rm5uNo50x-112">
          <mxGeometry relative="1" as="geometry">
            <Array as="points">
              <mxPoint x="365" y="673" />
            </Array>
          </mxGeometry>
        </mxCell>
        <mxCell id="GM3wIo_nSg7rm5uNo50x-20" value="" style="rounded=0;whiteSpace=wrap;html=1;" vertex="1" parent="NNrM0pU2OySrq2_Yb7bF-1">
          <mxGeometry x="280" y="530" width="20" height="290" as="geometry" />
        </mxCell>
        <mxCell id="GM3wIo_nSg7rm5uNo50x-21" value="" style="group" vertex="1" connectable="0" parent="NNrM0pU2OySrq2_Yb7bF-1">
          <mxGeometry x="580" y="440" width="80" height="80" as="geometry" />
        </mxCell>
        <mxCell id="GM3wIo_nSg7rm5uNo50x-22" value="&lt;font style=&quot;font-size: 20px;&quot;&gt;x0&lt;/font&gt;" style="whiteSpace=wrap;html=1;aspect=fixed;" vertex="1" parent="GM3wIo_nSg7rm5uNo50x-21">
          <mxGeometry width="80" height="80" as="geometry" />
        </mxCell>
        <mxCell id="GM3wIo_nSg7rm5uNo50x-23" value="" style="triangle;whiteSpace=wrap;html=1;" vertex="1" parent="GM3wIo_nSg7rm5uNo50x-21">
          <mxGeometry y="50" width="10" height="20" as="geometry" />
        </mxCell>
        <mxCell id="GM3wIo_nSg7rm5uNo50x-24" value="&lt;font style=&quot;font-size: 10px;&quot;&gt;rst_n&lt;/font&gt;" style="text;html=1;align=center;verticalAlign=middle;whiteSpace=wrap;rounded=0;" vertex="1" parent="GM3wIo_nSg7rm5uNo50x-21">
          <mxGeometry x="3" y="35" width="25" height="10" as="geometry" />
        </mxCell>
        <mxCell id="GM3wIo_nSg7rm5uNo50x-25" value="&lt;font style=&quot;font-size: 10px;&quot;&gt;en&lt;/font&gt;" style="text;html=1;align=center;verticalAlign=middle;whiteSpace=wrap;rounded=0;" vertex="1" parent="GM3wIo_nSg7rm5uNo50x-21">
          <mxGeometry x="5" y="25" width="10" height="10" as="geometry" />
        </mxCell>
        <mxCell id="GM3wIo_nSg7rm5uNo50x-26" value="D" style="text;html=1;align=center;verticalAlign=middle;whiteSpace=wrap;rounded=0;" vertex="1" parent="GM3wIo_nSg7rm5uNo50x-21">
          <mxGeometry y="5" width="30" height="20" as="geometry" />
        </mxCell>
        <mxCell id="GM3wIo_nSg7rm5uNo50x-27" value="Q" style="text;html=1;align=center;verticalAlign=middle;whiteSpace=wrap;rounded=0;" vertex="1" parent="GM3wIo_nSg7rm5uNo50x-21">
          <mxGeometry x="50" width="30" height="30" as="geometry" />
        </mxCell>
        <mxCell id="GM3wIo_nSg7rm5uNo50x-28" value="" style="group" vertex="1" connectable="0" parent="NNrM0pU2OySrq2_Yb7bF-1">
          <mxGeometry x="580" y="580" width="80" height="80" as="geometry" />
        </mxCell>
        <mxCell id="GM3wIo_nSg7rm5uNo50x-29" value="&lt;font style=&quot;font-size: 20px;&quot;&gt;x1&lt;/font&gt;" style="whiteSpace=wrap;html=1;aspect=fixed;" vertex="1" parent="GM3wIo_nSg7rm5uNo50x-28">
          <mxGeometry width="80" height="80" as="geometry" />
        </mxCell>
        <mxCell id="GM3wIo_nSg7rm5uNo50x-30" value="" style="triangle;whiteSpace=wrap;html=1;" vertex="1" parent="GM3wIo_nSg7rm5uNo50x-28">
          <mxGeometry y="50" width="10" height="20" as="geometry" />
        </mxCell>
        <mxCell id="GM3wIo_nSg7rm5uNo50x-31" value="&lt;font style=&quot;font-size: 10px;&quot;&gt;rst_n&lt;/font&gt;" style="text;html=1;align=center;verticalAlign=middle;whiteSpace=wrap;rounded=0;" vertex="1" parent="GM3wIo_nSg7rm5uNo50x-28">
          <mxGeometry x="3" y="35" width="25" height="10" as="geometry" />
        </mxCell>
        <mxCell id="GM3wIo_nSg7rm5uNo50x-32" value="&lt;font style=&quot;font-size: 10px;&quot;&gt;en&lt;/font&gt;" style="text;html=1;align=center;verticalAlign=middle;whiteSpace=wrap;rounded=0;" vertex="1" parent="GM3wIo_nSg7rm5uNo50x-28">
          <mxGeometry x="5" y="25" width="10" height="10" as="geometry" />
        </mxCell>
        <mxCell id="GM3wIo_nSg7rm5uNo50x-33" value="D" style="text;html=1;align=center;verticalAlign=middle;whiteSpace=wrap;rounded=0;" vertex="1" parent="GM3wIo_nSg7rm5uNo50x-28">
          <mxGeometry y="5" width="30" height="20" as="geometry" />
        </mxCell>
        <mxCell id="GM3wIo_nSg7rm5uNo50x-34" value="Q" style="text;html=1;align=center;verticalAlign=middle;whiteSpace=wrap;rounded=0;" vertex="1" parent="GM3wIo_nSg7rm5uNo50x-28">
          <mxGeometry x="50" width="30" height="30" as="geometry" />
        </mxCell>
        <mxCell id="GM3wIo_nSg7rm5uNo50x-35" value="" style="group" vertex="1" connectable="0" parent="NNrM0pU2OySrq2_Yb7bF-1">
          <mxGeometry x="580" y="720" width="80" height="80" as="geometry" />
        </mxCell>
        <mxCell id="GM3wIo_nSg7rm5uNo50x-36" value="&lt;font style=&quot;font-size: 20px;&quot;&gt;x2&lt;/font&gt;" style="whiteSpace=wrap;html=1;aspect=fixed;" vertex="1" parent="GM3wIo_nSg7rm5uNo50x-35">
          <mxGeometry width="80" height="80" as="geometry" />
        </mxCell>
        <mxCell id="GM3wIo_nSg7rm5uNo50x-37" value="" style="triangle;whiteSpace=wrap;html=1;" vertex="1" parent="GM3wIo_nSg7rm5uNo50x-35">
          <mxGeometry y="50" width="10" height="20" as="geometry" />
        </mxCell>
        <mxCell id="GM3wIo_nSg7rm5uNo50x-38" value="&lt;font style=&quot;font-size: 10px;&quot;&gt;rst_n&lt;/font&gt;" style="text;html=1;align=center;verticalAlign=middle;whiteSpace=wrap;rounded=0;" vertex="1" parent="GM3wIo_nSg7rm5uNo50x-35">
          <mxGeometry x="3" y="35" width="25" height="10" as="geometry" />
        </mxCell>
        <mxCell id="GM3wIo_nSg7rm5uNo50x-39" value="&lt;font style=&quot;font-size: 10px;&quot;&gt;en&lt;/font&gt;" style="text;html=1;align=center;verticalAlign=middle;whiteSpace=wrap;rounded=0;" vertex="1" parent="GM3wIo_nSg7rm5uNo50x-35">
          <mxGeometry x="5" y="25" width="10" height="10" as="geometry" />
        </mxCell>
        <mxCell id="GM3wIo_nSg7rm5uNo50x-40" value="D" style="text;html=1;align=center;verticalAlign=middle;whiteSpace=wrap;rounded=0;" vertex="1" parent="GM3wIo_nSg7rm5uNo50x-35">
          <mxGeometry y="5" width="30" height="20" as="geometry" />
        </mxCell>
        <mxCell id="GM3wIo_nSg7rm5uNo50x-41" value="Q" style="text;html=1;align=center;verticalAlign=middle;whiteSpace=wrap;rounded=0;" vertex="1" parent="GM3wIo_nSg7rm5uNo50x-35">
          <mxGeometry x="50" width="30" height="30" as="geometry" />
        </mxCell>
        <mxCell id="GM3wIo_nSg7rm5uNo50x-86" style="edgeStyle=orthogonalEdgeStyle;rounded=0;orthogonalLoop=1;jettySize=auto;html=1;entryX=0;entryY=0.75;entryDx=0;entryDy=0;" edge="1" parent="NNrM0pU2OySrq2_Yb7bF-1" source="GM3wIo_nSg7rm5uNo50x-42" target="GM3wIo_nSg7rm5uNo50x-32">
          <mxGeometry relative="1" as="geometry" />
        </mxCell>
        <mxCell id="GM3wIo_nSg7rm5uNo50x-42" value="" style="shape=or;whiteSpace=wrap;html=1;" vertex="1" parent="NNrM0pU2OySrq2_Yb7bF-1">
          <mxGeometry x="520" y="600" width="20" height="20" as="geometry" />
        </mxCell>
        <mxCell id="GM3wIo_nSg7rm5uNo50x-43" value="" style="shape=or;whiteSpace=wrap;html=1;" vertex="1" parent="NNrM0pU2OySrq2_Yb7bF-1">
          <mxGeometry x="520" y="750" width="20" height="20" as="geometry" />
        </mxCell>
        <mxCell id="GM3wIo_nSg7rm5uNo50x-44" value="" style="shape=trapezoid;perimeter=trapezoidPerimeter;whiteSpace=wrap;html=1;fixedSize=1;direction=south;" vertex="1" parent="NNrM0pU2OySrq2_Yb7bF-1">
          <mxGeometry x="950" y="350" width="30" height="280" as="geometry" />
        </mxCell>
        <mxCell id="GM3wIo_nSg7rm5uNo50x-52" value="" style="shape=trapezoid;perimeter=trapezoidPerimeter;whiteSpace=wrap;html=1;fixedSize=1;direction=south;" vertex="1" parent="NNrM0pU2OySrq2_Yb7bF-1">
          <mxGeometry x="950" y="790" width="30" height="280" as="geometry" />
        </mxCell>
        <mxCell id="GM3wIo_nSg7rm5uNo50x-129" style="edgeStyle=orthogonalEdgeStyle;rounded=0;orthogonalLoop=1;jettySize=auto;html=1;entryX=0.25;entryY=1;entryDx=0;entryDy=0;" edge="1" parent="NNrM0pU2OySrq2_Yb7bF-1" source="GM3wIo_nSg7rm5uNo50x-56" target="GM3wIo_nSg7rm5uNo50x-52">
          <mxGeometry relative="1" as="geometry">
            <Array as="points">
              <mxPoint x="862" y="860" />
            </Array>
          </mxGeometry>
        </mxCell>
        <mxCell id="GM3wIo_nSg7rm5uNo50x-56" value="" style="shape=ellipse;fillColor=#000000;strokeColor=none;html=1;sketch=0;strokeWidth=1;rotation=0;" vertex="1" parent="NNrM0pU2OySrq2_Yb7bF-1">
          <mxGeometry x="860" y="390" width="4" height="4" as="geometry" />
        </mxCell>
        <mxCell id="GM3wIo_nSg7rm5uNo50x-57" value="" style="shape=ellipse;fillColor=#000000;strokeColor=none;html=1;sketch=0;strokeWidth=1;rotation=0;" vertex="1" parent="NNrM0pU2OySrq2_Yb7bF-1">
          <mxGeometry x="830" y="450" width="4" height="4" as="geometry" />
        </mxCell>
        <mxCell id="GM3wIo_nSg7rm5uNo50x-58" value="" style="shape=ellipse;fillColor=#000000;strokeColor=none;html=1;sketch=0;strokeWidth=1;rotation=0;" vertex="1" parent="NNrM0pU2OySrq2_Yb7bF-1">
          <mxGeometry x="800" y="500" width="4" height="4" as="geometry" />
        </mxCell>
        <mxCell id="GM3wIo_nSg7rm5uNo50x-59" value="waddr" style="text;html=1;align=center;verticalAlign=middle;resizable=0;points=[];autosize=1;strokeColor=none;fillColor=none;" vertex="1" parent="NNrM0pU2OySrq2_Yb7bF-1">
          <mxGeometry y="658" width="60" height="30" as="geometry" />
        </mxCell>
        <mxCell id="GM3wIo_nSg7rm5uNo50x-60" style="edgeStyle=orthogonalEdgeStyle;rounded=0;orthogonalLoop=1;jettySize=auto;html=1;entryX=-0.001;entryY=0.49;entryDx=0;entryDy=0;entryPerimeter=0;" edge="1" parent="NNrM0pU2OySrq2_Yb7bF-1" source="GM3wIo_nSg7rm5uNo50x-59" target="GM3wIo_nSg7rm5uNo50x-20">
          <mxGeometry relative="1" as="geometry" />
        </mxCell>
        <mxCell id="GM3wIo_nSg7rm5uNo50x-74" value="reg_wr" style="text;html=1;align=center;verticalAlign=middle;resizable=0;points=[];autosize=1;strokeColor=none;fillColor=none;" vertex="1" parent="NNrM0pU2OySrq2_Yb7bF-1">
          <mxGeometry y="465" width="60" height="30" as="geometry" />
        </mxCell>
        <mxCell id="GM3wIo_nSg7rm5uNo50x-81" style="edgeStyle=orthogonalEdgeStyle;rounded=0;orthogonalLoop=1;jettySize=auto;html=1;entryX=0;entryY=0.25;entryDx=0;entryDy=0;entryPerimeter=0;" edge="1" parent="NNrM0pU2OySrq2_Yb7bF-1" source="GM3wIo_nSg7rm5uNo50x-94" target="GM3wIo_nSg7rm5uNo50x-42">
          <mxGeometry relative="1" as="geometry" />
        </mxCell>
        <mxCell id="GM3wIo_nSg7rm5uNo50x-83" value="" style="endArrow=none;html=1;rounded=0;" edge="1" parent="NNrM0pU2OySrq2_Yb7bF-1" source="GM3wIo_nSg7rm5uNo50x-94">
          <mxGeometry width="50" height="50" relative="1" as="geometry">
            <mxPoint x="380" y="760" as="sourcePoint" />
            <mxPoint x="380" y="600" as="targetPoint" />
          </mxGeometry>
        </mxCell>
        <mxCell id="GM3wIo_nSg7rm5uNo50x-84" value="" style="endArrow=classic;html=1;rounded=0;entryX=0.01;entryY=0.121;entryDx=0;entryDy=0;entryPerimeter=0;exitX=0.433;exitY=0.516;exitDx=0;exitDy=0;exitPerimeter=0;" edge="1" parent="NNrM0pU2OySrq2_Yb7bF-1" source="GM3wIo_nSg7rm5uNo50x-97" target="GM3wIo_nSg7rm5uNo50x-43">
          <mxGeometry width="50" height="50" relative="1" as="geometry">
            <mxPoint x="380" y="755" as="sourcePoint" />
            <mxPoint x="510" y="750" as="targetPoint" />
            <Array as="points" />
          </mxGeometry>
        </mxCell>
        <mxCell id="GM3wIo_nSg7rm5uNo50x-85" style="edgeStyle=orthogonalEdgeStyle;rounded=0;orthogonalLoop=1;jettySize=auto;html=1;entryX=-0.4;entryY=0.712;entryDx=0;entryDy=0;entryPerimeter=0;exitX=1;exitY=0.5;exitDx=0;exitDy=0;exitPerimeter=0;" edge="1" parent="NNrM0pU2OySrq2_Yb7bF-1" source="GM3wIo_nSg7rm5uNo50x-43" target="GM3wIo_nSg7rm5uNo50x-39">
          <mxGeometry relative="1" as="geometry">
            <Array as="points">
              <mxPoint x="540" y="752" />
            </Array>
          </mxGeometry>
        </mxCell>
        <mxCell id="GM3wIo_nSg7rm5uNo50x-87" value="" style="endArrow=none;dashed=1;html=1;dashPattern=1 3;strokeWidth=2;rounded=0;" edge="1" parent="NNrM0pU2OySrq2_Yb7bF-1">
          <mxGeometry width="50" height="50" relative="1" as="geometry">
            <mxPoint x="490" y="900" as="sourcePoint" />
            <mxPoint x="490" y="830" as="targetPoint" />
          </mxGeometry>
        </mxCell>
        <mxCell id="GM3wIo_nSg7rm5uNo50x-89" style="edgeStyle=orthogonalEdgeStyle;rounded=0;orthogonalLoop=1;jettySize=auto;html=1;" edge="1" parent="NNrM0pU2OySrq2_Yb7bF-1" source="GM3wIo_nSg7rm5uNo50x-88">
          <mxGeometry relative="1" as="geometry">
            <mxPoint x="490" y="910" as="targetPoint" />
          </mxGeometry>
        </mxCell>
        <mxCell id="GM3wIo_nSg7rm5uNo50x-88" value="wdata" style="text;html=1;align=center;verticalAlign=middle;resizable=0;points=[];autosize=1;strokeColor=none;fillColor=none;" vertex="1" parent="NNrM0pU2OySrq2_Yb7bF-1">
          <mxGeometry x="460" y="1250" width="60" height="30" as="geometry" />
        </mxCell>
        <mxCell id="GM3wIo_nSg7rm5uNo50x-95" value="" style="edgeStyle=orthogonalEdgeStyle;rounded=0;orthogonalLoop=1;jettySize=auto;html=1;entryX=0.559;entryY=0.51;entryDx=0;entryDy=0;entryPerimeter=0;" edge="1" parent="NNrM0pU2OySrq2_Yb7bF-1" source="GM3wIo_nSg7rm5uNo50x-74" target="GM3wIo_nSg7rm5uNo50x-94">
          <mxGeometry relative="1" as="geometry">
            <mxPoint x="240" y="480" as="sourcePoint" />
            <mxPoint x="520" y="605" as="targetPoint" />
          </mxGeometry>
        </mxCell>
        <mxCell id="GM3wIo_nSg7rm5uNo50x-96" value="" style="endArrow=none;html=1;rounded=0;" edge="1" parent="NNrM0pU2OySrq2_Yb7bF-1" source="GM3wIo_nSg7rm5uNo50x-97" target="GM3wIo_nSg7rm5uNo50x-94">
          <mxGeometry width="50" height="50" relative="1" as="geometry">
            <mxPoint x="380" y="760" as="sourcePoint" />
            <mxPoint x="380" y="600" as="targetPoint" />
          </mxGeometry>
        </mxCell>
        <mxCell id="GM3wIo_nSg7rm5uNo50x-94" value="" style="shape=ellipse;fillColor=#000000;strokeColor=none;html=1;sketch=0;strokeWidth=1;rotation=0;" vertex="1" parent="NNrM0pU2OySrq2_Yb7bF-1">
          <mxGeometry x="380" y="603" width="4" height="4" as="geometry" />
        </mxCell>
        <mxCell id="GM3wIo_nSg7rm5uNo50x-99" style="edgeStyle=orthogonalEdgeStyle;rounded=0;orthogonalLoop=1;jettySize=auto;html=1;" edge="1" parent="NNrM0pU2OySrq2_Yb7bF-1" source="GM3wIo_nSg7rm5uNo50x-97">
          <mxGeometry relative="1" as="geometry">
            <mxPoint x="381.9999999999998" y="830" as="targetPoint" />
          </mxGeometry>
        </mxCell>
        <mxCell id="GM3wIo_nSg7rm5uNo50x-97" value="" style="shape=ellipse;fillColor=#000000;strokeColor=none;html=1;sketch=0;strokeWidth=1;rotation=0;" vertex="1" parent="NNrM0pU2OySrq2_Yb7bF-1">
          <mxGeometry x="380" y="750" width="4" height="4" as="geometry" />
        </mxCell>
        <mxCell id="GM3wIo_nSg7rm5uNo50x-100" value="" style="endArrow=none;dashed=1;html=1;dashPattern=1 3;strokeWidth=2;rounded=0;" edge="1" parent="NNrM0pU2OySrq2_Yb7bF-1">
          <mxGeometry width="50" height="50" relative="1" as="geometry">
            <mxPoint x="381.6300000000001" y="900" as="sourcePoint" />
            <mxPoint x="381.6300000000001" y="830" as="targetPoint" />
          </mxGeometry>
        </mxCell>
        <mxCell id="GM3wIo_nSg7rm5uNo50x-101" value="" style="endArrow=none;html=1;rounded=0;" edge="1" parent="NNrM0pU2OySrq2_Yb7bF-1" source="GM3wIo_nSg7rm5uNo50x-108">
          <mxGeometry width="50" height="50" relative="1" as="geometry">
            <mxPoint x="490" y="830" as="sourcePoint" />
            <mxPoint x="490" y="730" as="targetPoint" />
          </mxGeometry>
        </mxCell>
        <mxCell id="GM3wIo_nSg7rm5uNo50x-109" value="" style="endArrow=none;html=1;rounded=0;" edge="1" parent="NNrM0pU2OySrq2_Yb7bF-1" target="GM3wIo_nSg7rm5uNo50x-108">
          <mxGeometry width="50" height="50" relative="1" as="geometry">
            <mxPoint x="490" y="830" as="sourcePoint" />
            <mxPoint x="490" y="730" as="targetPoint" />
          </mxGeometry>
        </mxCell>
        <mxCell id="GM3wIo_nSg7rm5uNo50x-110" style="edgeStyle=orthogonalEdgeStyle;rounded=0;orthogonalLoop=1;jettySize=auto;html=1;entryX=0;entryY=0.5;entryDx=0;entryDy=0;" edge="1" parent="NNrM0pU2OySrq2_Yb7bF-1" source="GM3wIo_nSg7rm5uNo50x-108" target="GM3wIo_nSg7rm5uNo50x-40">
          <mxGeometry relative="1" as="geometry" />
        </mxCell>
        <mxCell id="GM3wIo_nSg7rm5uNo50x-111" style="edgeStyle=orthogonalEdgeStyle;rounded=0;orthogonalLoop=1;jettySize=auto;html=1;entryX=0;entryY=0.5;entryDx=0;entryDy=0;" edge="1" parent="NNrM0pU2OySrq2_Yb7bF-1" source="GM3wIo_nSg7rm5uNo50x-108" target="GM3wIo_nSg7rm5uNo50x-33">
          <mxGeometry relative="1" as="geometry">
            <Array as="points">
              <mxPoint x="490" y="595" />
            </Array>
          </mxGeometry>
        </mxCell>
        <mxCell id="GM3wIo_nSg7rm5uNo50x-108" value="" style="shape=ellipse;fillColor=#000000;strokeColor=none;html=1;sketch=0;strokeWidth=1;rotation=0;" vertex="1" parent="NNrM0pU2OySrq2_Yb7bF-1">
          <mxGeometry x="488" y="725" width="4" height="4" as="geometry" />
        </mxCell>
        <mxCell id="GM3wIo_nSg7rm5uNo50x-118" style="edgeStyle=orthogonalEdgeStyle;rounded=0;orthogonalLoop=1;jettySize=auto;html=1;entryX=0.5;entryY=0;entryDx=0;entryDy=0;" edge="1" parent="NNrM0pU2OySrq2_Yb7bF-1" source="GM3wIo_nSg7rm5uNo50x-112" target="GM3wIo_nSg7rm5uNo50x-116">
          <mxGeometry relative="1" as="geometry" />
        </mxCell>
        <mxCell id="GM3wIo_nSg7rm5uNo50x-112" value="" style="shape=ellipse;fillColor=#000000;strokeColor=none;html=1;sketch=0;strokeWidth=1;rotation=0;" vertex="1" parent="NNrM0pU2OySrq2_Yb7bF-1">
          <mxGeometry x="430" y="671" width="4" height="4" as="geometry" />
        </mxCell>
        <mxCell id="GM3wIo_nSg7rm5uNo50x-114" style="edgeStyle=orthogonalEdgeStyle;rounded=0;orthogonalLoop=1;jettySize=auto;html=1;entryX=0;entryY=0.75;entryDx=0;entryDy=0;entryPerimeter=0;" edge="1" parent="NNrM0pU2OySrq2_Yb7bF-1" source="GM3wIo_nSg7rm5uNo50x-112" target="GM3wIo_nSg7rm5uNo50x-42">
          <mxGeometry relative="1" as="geometry" />
        </mxCell>
        <mxCell id="GM3wIo_nSg7rm5uNo50x-119" style="edgeStyle=orthogonalEdgeStyle;rounded=0;orthogonalLoop=1;jettySize=auto;html=1;" edge="1" parent="NNrM0pU2OySrq2_Yb7bF-1" source="GM3wIo_nSg7rm5uNo50x-116">
          <mxGeometry relative="1" as="geometry">
            <mxPoint x="432" y="830" as="targetPoint" />
          </mxGeometry>
        </mxCell>
        <mxCell id="GM3wIo_nSg7rm5uNo50x-116" value="" style="shape=ellipse;fillColor=#000000;strokeColor=none;html=1;sketch=0;strokeWidth=1;rotation=0;" vertex="1" parent="NNrM0pU2OySrq2_Yb7bF-1">
          <mxGeometry x="430" y="766" width="4" height="4" as="geometry" />
        </mxCell>
        <mxCell id="GM3wIo_nSg7rm5uNo50x-120" style="edgeStyle=orthogonalEdgeStyle;rounded=0;orthogonalLoop=1;jettySize=auto;html=1;entryX=-0.069;entryY=0.905;entryDx=0;entryDy=0;entryPerimeter=0;" edge="1" parent="NNrM0pU2OySrq2_Yb7bF-1" source="GM3wIo_nSg7rm5uNo50x-116" target="GM3wIo_nSg7rm5uNo50x-43">
          <mxGeometry relative="1" as="geometry" />
        </mxCell>
        <mxCell id="GM3wIo_nSg7rm5uNo50x-121" value="" style="endArrow=none;dashed=1;html=1;dashPattern=1 3;strokeWidth=2;rounded=0;" edge="1" parent="NNrM0pU2OySrq2_Yb7bF-1">
          <mxGeometry width="50" height="50" relative="1" as="geometry">
            <mxPoint x="431.71000000000004" y="900" as="sourcePoint" />
            <mxPoint x="431.71000000000004" y="830" as="targetPoint" />
          </mxGeometry>
        </mxCell>
        <mxCell id="GM3wIo_nSg7rm5uNo50x-122" style="edgeStyle=orthogonalEdgeStyle;rounded=0;orthogonalLoop=1;jettySize=auto;html=1;entryX=0.5;entryY=0;entryDx=0;entryDy=0;exitX=1;exitY=0.5;exitDx=0;exitDy=0;" edge="1" parent="NNrM0pU2OySrq2_Yb7bF-1" source="GM3wIo_nSg7rm5uNo50x-27" target="GM3wIo_nSg7rm5uNo50x-56">
          <mxGeometry relative="1" as="geometry">
            <Array as="points">
              <mxPoint x="680" y="455" />
              <mxPoint x="680" y="390" />
            </Array>
          </mxGeometry>
        </mxCell>
        <mxCell id="GM3wIo_nSg7rm5uNo50x-123" style="edgeStyle=orthogonalEdgeStyle;rounded=0;orthogonalLoop=1;jettySize=auto;html=1;entryX=0.153;entryY=1.019;entryDx=0;entryDy=0;entryPerimeter=0;" edge="1" parent="NNrM0pU2OySrq2_Yb7bF-1" source="GM3wIo_nSg7rm5uNo50x-56" target="GM3wIo_nSg7rm5uNo50x-44">
          <mxGeometry relative="1" as="geometry" />
        </mxCell>
        <mxCell id="GM3wIo_nSg7rm5uNo50x-124" style="edgeStyle=orthogonalEdgeStyle;rounded=0;orthogonalLoop=1;jettySize=auto;html=1;entryX=0.581;entryY=0.494;entryDx=0;entryDy=0;entryPerimeter=0;" edge="1" parent="NNrM0pU2OySrq2_Yb7bF-1" source="GM3wIo_nSg7rm5uNo50x-34" target="GM3wIo_nSg7rm5uNo50x-57">
          <mxGeometry relative="1" as="geometry">
            <Array as="points">
              <mxPoint x="710" y="595" />
              <mxPoint x="710" y="452" />
            </Array>
          </mxGeometry>
        </mxCell>
        <mxCell id="GM3wIo_nSg7rm5uNo50x-125" style="edgeStyle=orthogonalEdgeStyle;rounded=0;orthogonalLoop=1;jettySize=auto;html=1;entryX=0.367;entryY=1.093;entryDx=0;entryDy=0;entryPerimeter=0;" edge="1" parent="NNrM0pU2OySrq2_Yb7bF-1" source="GM3wIo_nSg7rm5uNo50x-57" target="GM3wIo_nSg7rm5uNo50x-44">
          <mxGeometry relative="1" as="geometry" />
        </mxCell>
        <mxCell id="GM3wIo_nSg7rm5uNo50x-126" style="edgeStyle=orthogonalEdgeStyle;rounded=0;orthogonalLoop=1;jettySize=auto;html=1;entryX=0;entryY=0.5;entryDx=0;entryDy=0;" edge="1" parent="NNrM0pU2OySrq2_Yb7bF-1" source="GM3wIo_nSg7rm5uNo50x-41" target="GM3wIo_nSg7rm5uNo50x-58">
          <mxGeometry relative="1" as="geometry" />
        </mxCell>
        <mxCell id="GM3wIo_nSg7rm5uNo50x-127" style="edgeStyle=orthogonalEdgeStyle;rounded=0;orthogonalLoop=1;jettySize=auto;html=1;entryX=0.546;entryY=0.914;entryDx=0;entryDy=0;entryPerimeter=0;" edge="1" parent="NNrM0pU2OySrq2_Yb7bF-1" source="GM3wIo_nSg7rm5uNo50x-58" target="GM3wIo_nSg7rm5uNo50x-44">
          <mxGeometry relative="1" as="geometry" />
        </mxCell>
        <mxCell id="GM3wIo_nSg7rm5uNo50x-128" value="" style="endArrow=none;dashed=1;html=1;dashPattern=1 3;strokeWidth=2;rounded=0;" edge="1" parent="NNrM0pU2OySrq2_Yb7bF-1">
          <mxGeometry width="50" height="50" relative="1" as="geometry">
            <mxPoint x="910" y="603" as="sourcePoint" />
            <mxPoint x="910" y="533" as="targetPoint" />
          </mxGeometry>
        </mxCell>
        <mxCell id="GM3wIo_nSg7rm5uNo50x-130" style="edgeStyle=orthogonalEdgeStyle;rounded=0;orthogonalLoop=1;jettySize=auto;html=1;entryX=0.452;entryY=1.026;entryDx=0;entryDy=0;entryPerimeter=0;" edge="1" parent="NNrM0pU2OySrq2_Yb7bF-1" source="GM3wIo_nSg7rm5uNo50x-57" target="GM3wIo_nSg7rm5uNo50x-52">
          <mxGeometry relative="1" as="geometry">
            <Array as="points">
              <mxPoint x="832" y="917" />
            </Array>
          </mxGeometry>
        </mxCell>
        <mxCell id="GM3wIo_nSg7rm5uNo50x-131" style="edgeStyle=orthogonalEdgeStyle;rounded=0;orthogonalLoop=1;jettySize=auto;html=1;entryX=0.595;entryY=1.026;entryDx=0;entryDy=0;entryPerimeter=0;" edge="1" parent="NNrM0pU2OySrq2_Yb7bF-1" source="GM3wIo_nSg7rm5uNo50x-58" target="GM3wIo_nSg7rm5uNo50x-52">
          <mxGeometry relative="1" as="geometry">
            <Array as="points">
              <mxPoint x="802" y="957" />
            </Array>
          </mxGeometry>
        </mxCell>
        <mxCell id="GM3wIo_nSg7rm5uNo50x-132" value="" style="endArrow=none;dashed=1;html=1;dashPattern=1 3;strokeWidth=2;rounded=0;" edge="1" parent="NNrM0pU2OySrq2_Yb7bF-1">
          <mxGeometry width="50" height="50" relative="1" as="geometry">
            <mxPoint x="910" y="1040" as="sourcePoint" />
            <mxPoint x="910" y="970" as="targetPoint" />
          </mxGeometry>
        </mxCell>
        <mxCell id="GM3wIo_nSg7rm5uNo50x-134" style="edgeStyle=orthogonalEdgeStyle;rounded=0;orthogonalLoop=1;jettySize=auto;html=1;" edge="1" parent="NNrM0pU2OySrq2_Yb7bF-1" source="GM3wIo_nSg7rm5uNo50x-133">
          <mxGeometry relative="1" as="geometry">
            <mxPoint x="350" y="910.0000000000002" as="targetPoint" />
          </mxGeometry>
        </mxCell>
        <mxCell id="GM3wIo_nSg7rm5uNo50x-133" value="reset_n" style="text;html=1;align=center;verticalAlign=middle;resizable=0;points=[];autosize=1;strokeColor=none;fillColor=none;" vertex="1" parent="NNrM0pU2OySrq2_Yb7bF-1">
          <mxGeometry x="320" y="1250" width="60" height="30" as="geometry" />
        </mxCell>
        <mxCell id="GM3wIo_nSg7rm5uNo50x-135" value="" style="endArrow=none;dashed=1;html=1;dashPattern=1 3;strokeWidth=2;rounded=0;" edge="1" parent="NNrM0pU2OySrq2_Yb7bF-1">
          <mxGeometry width="50" height="50" relative="1" as="geometry">
            <mxPoint x="349.44000000000005" y="900" as="sourcePoint" />
            <mxPoint x="349.44000000000005" y="830" as="targetPoint" />
          </mxGeometry>
        </mxCell>
        <mxCell id="GM3wIo_nSg7rm5uNo50x-136" value="" style="endArrow=none;html=1;rounded=0;" edge="1" parent="NNrM0pU2OySrq2_Yb7bF-1" source="GM3wIo_nSg7rm5uNo50x-137">
          <mxGeometry width="50" height="50" relative="1" as="geometry">
            <mxPoint x="350" y="830" as="sourcePoint" />
            <mxPoint x="350" y="790" as="targetPoint" />
          </mxGeometry>
        </mxCell>
        <mxCell id="GM3wIo_nSg7rm5uNo50x-138" value="" style="endArrow=none;html=1;rounded=0;" edge="1" parent="NNrM0pU2OySrq2_Yb7bF-1" target="GM3wIo_nSg7rm5uNo50x-137">
          <mxGeometry width="50" height="50" relative="1" as="geometry">
            <mxPoint x="350" y="830" as="sourcePoint" />
            <mxPoint x="350" y="790" as="targetPoint" />
          </mxGeometry>
        </mxCell>
        <mxCell id="GM3wIo_nSg7rm5uNo50x-139" style="edgeStyle=orthogonalEdgeStyle;rounded=0;orthogonalLoop=1;jettySize=auto;html=1;entryX=0;entryY=0.75;entryDx=0;entryDy=0;" edge="1" parent="NNrM0pU2OySrq2_Yb7bF-1" source="GM3wIo_nSg7rm5uNo50x-137" target="GM3wIo_nSg7rm5uNo50x-38">
          <mxGeometry relative="1" as="geometry">
            <Array as="points">
              <mxPoint x="560" y="792" />
              <mxPoint x="560" y="763" />
            </Array>
          </mxGeometry>
        </mxCell>
        <mxCell id="GM3wIo_nSg7rm5uNo50x-140" style="edgeStyle=orthogonalEdgeStyle;rounded=0;orthogonalLoop=1;jettySize=auto;html=1;entryX=0;entryY=0.75;entryDx=0;entryDy=0;" edge="1" parent="NNrM0pU2OySrq2_Yb7bF-1" source="GM3wIo_nSg7rm5uNo50x-137" target="GM3wIo_nSg7rm5uNo50x-31">
          <mxGeometry relative="1" as="geometry">
            <Array as="points">
              <mxPoint x="350" y="623" />
            </Array>
          </mxGeometry>
        </mxCell>
        <mxCell id="GM3wIo_nSg7rm5uNo50x-137" value="" style="shape=ellipse;fillColor=#000000;strokeColor=none;html=1;sketch=0;strokeWidth=1;rotation=0;" vertex="1" parent="NNrM0pU2OySrq2_Yb7bF-1">
          <mxGeometry x="348" y="790" width="4" height="4" as="geometry" />
        </mxCell>
        <mxCell id="GM3wIo_nSg7rm5uNo50x-141" value="rdata1" style="text;html=1;align=center;verticalAlign=middle;resizable=0;points=[];autosize=1;strokeColor=none;fillColor=none;" vertex="1" parent="NNrM0pU2OySrq2_Yb7bF-1">
          <mxGeometry x="1150" y="470" width="60" height="30" as="geometry" />
        </mxCell>
        <mxCell id="GM3wIo_nSg7rm5uNo50x-142" value="rdata2" style="text;html=1;align=center;verticalAlign=middle;resizable=0;points=[];autosize=1;strokeColor=none;fillColor=none;" vertex="1" parent="NNrM0pU2OySrq2_Yb7bF-1">
          <mxGeometry x="1150" y="900" width="60" height="30" as="geometry" />
        </mxCell>
        <mxCell id="GM3wIo_nSg7rm5uNo50x-143" style="edgeStyle=orthogonalEdgeStyle;rounded=0;orthogonalLoop=1;jettySize=auto;html=1;entryX=0.027;entryY=0.656;entryDx=0;entryDy=0;entryPerimeter=0;" edge="1" parent="NNrM0pU2OySrq2_Yb7bF-1" source="GM3wIo_nSg7rm5uNo50x-44" target="GM3wIo_nSg7rm5uNo50x-141">
          <mxGeometry relative="1" as="geometry" />
        </mxCell>
        <mxCell id="GM3wIo_nSg7rm5uNo50x-144" style="edgeStyle=orthogonalEdgeStyle;rounded=0;orthogonalLoop=1;jettySize=auto;html=1;entryX=-0.071;entryY=0.518;entryDx=0;entryDy=0;entryPerimeter=0;" edge="1" parent="NNrM0pU2OySrq2_Yb7bF-1" source="GM3wIo_nSg7rm5uNo50x-52" target="GM3wIo_nSg7rm5uNo50x-142">
          <mxGeometry relative="1" as="geometry">
            <Array as="points">
              <mxPoint x="1010" y="916" />
              <mxPoint x="1010" y="916" />
            </Array>
          </mxGeometry>
        </mxCell>
        <mxCell id="GM3wIo_nSg7rm5uNo50x-146" style="edgeStyle=orthogonalEdgeStyle;rounded=0;orthogonalLoop=1;jettySize=auto;html=1;entryX=1;entryY=0.5;entryDx=0;entryDy=0;exitX=0.596;exitY=-0.077;exitDx=0;exitDy=0;exitPerimeter=0;" edge="1" parent="NNrM0pU2OySrq2_Yb7bF-1" source="GM3wIo_nSg7rm5uNo50x-145" target="GM3wIo_nSg7rm5uNo50x-52">
          <mxGeometry relative="1" as="geometry" />
        </mxCell>
        <mxCell id="GM3wIo_nSg7rm5uNo50x-145" value="raddr2" style="text;html=1;align=center;verticalAlign=middle;resizable=0;points=[];autosize=1;strokeColor=none;fillColor=none;" vertex="1" parent="NNrM0pU2OySrq2_Yb7bF-1">
          <mxGeometry x="930" y="1250" width="60" height="30" as="geometry" />
        </mxCell>
        <mxCell id="GM3wIo_nSg7rm5uNo50x-148" style="edgeStyle=orthogonalEdgeStyle;rounded=0;orthogonalLoop=1;jettySize=auto;html=1;entryX=0;entryY=0.5;entryDx=0;entryDy=0;exitX=0.595;exitY=1.019;exitDx=0;exitDy=0;exitPerimeter=0;" edge="1" parent="NNrM0pU2OySrq2_Yb7bF-1" source="GM3wIo_nSg7rm5uNo50x-147" target="GM3wIo_nSg7rm5uNo50x-44">
          <mxGeometry relative="1" as="geometry" />
        </mxCell>
        <mxCell id="GM3wIo_nSg7rm5uNo50x-147" value="raddr1" style="text;html=1;align=center;verticalAlign=middle;resizable=0;points=[];autosize=1;strokeColor=none;fillColor=none;" vertex="1" parent="NNrM0pU2OySrq2_Yb7bF-1">
          <mxGeometry x="930" width="60" height="30" as="geometry" />
        </mxCell>
        <mxCell id="GM3wIo_nSg7rm5uNo50x-149" value="" style="endArrow=none;html=1;rounded=0;" edge="1" parent="NNrM0pU2OySrq2_Yb7bF-1">
          <mxGeometry width="50" height="50" relative="1" as="geometry">
            <mxPoint x="110" y="683" as="sourcePoint" />
            <mxPoint x="120" y="663" as="targetPoint" />
          </mxGeometry>
        </mxCell>
        <mxCell id="GM3wIo_nSg7rm5uNo50x-151" value="5" style="text;html=1;align=center;verticalAlign=middle;resizable=0;points=[];autosize=1;strokeColor=none;fillColor=none;" vertex="1" parent="NNrM0pU2OySrq2_Yb7bF-1">
          <mxGeometry x="100" y="638" width="30" height="30" as="geometry" />
        </mxCell>
        <mxCell id="GM3wIo_nSg7rm5uNo50x-152" value="" style="endArrow=none;html=1;rounded=0;" edge="1" parent="NNrM0pU2OySrq2_Yb7bF-1">
          <mxGeometry width="50" height="50" relative="1" as="geometry">
            <mxPoint x="320" y="683" as="sourcePoint" />
            <mxPoint x="330" y="663" as="targetPoint" />
          </mxGeometry>
        </mxCell>
        <mxCell id="GM3wIo_nSg7rm5uNo50x-153" value="31" style="text;html=1;align=center;verticalAlign=middle;resizable=0;points=[];autosize=1;strokeColor=none;fillColor=none;" vertex="1" parent="NNrM0pU2OySrq2_Yb7bF-1">
          <mxGeometry x="305" y="638" width="40" height="30" as="geometry" />
        </mxCell>
        <mxCell id="GM3wIo_nSg7rm5uNo50x-154" value="en[30:0]" style="text;html=1;align=center;verticalAlign=middle;resizable=0;points=[];autosize=1;strokeColor=none;fillColor=none;" vertex="1" parent="NNrM0pU2OySrq2_Yb7bF-1">
          <mxGeometry x="290" y="675" width="70" height="30" as="geometry" />
        </mxCell>
        <mxCell id="GM3wIo_nSg7rm5uNo50x-155" value="en1" style="text;html=1;align=center;verticalAlign=middle;resizable=0;points=[];autosize=1;strokeColor=none;fillColor=none;" vertex="1" parent="NNrM0pU2OySrq2_Yb7bF-1">
          <mxGeometry x="440" y="626" width="40" height="30" as="geometry" />
        </mxCell>
        <mxCell id="GM3wIo_nSg7rm5uNo50x-157" value="en2" style="text;html=1;align=center;verticalAlign=middle;resizable=0;points=[];autosize=1;strokeColor=none;fillColor=none;" vertex="1" parent="NNrM0pU2OySrq2_Yb7bF-1">
          <mxGeometry x="430" y="766" width="40" height="30" as="geometry" />
        </mxCell>
        <mxCell id="GM3wIo_nSg7rm5uNo50x-159" value="" style="endArrow=none;html=1;rounded=0;" edge="1" parent="NNrM0pU2OySrq2_Yb7bF-1">
          <mxGeometry width="50" height="50" relative="1" as="geometry">
            <mxPoint x="485" y="1195" as="sourcePoint" />
            <mxPoint x="495" y="1175" as="targetPoint" />
          </mxGeometry>
        </mxCell>
        <mxCell id="GM3wIo_nSg7rm5uNo50x-160" value="32" style="text;html=1;align=center;verticalAlign=middle;resizable=0;points=[];autosize=1;strokeColor=none;fillColor=none;" vertex="1" parent="NNrM0pU2OySrq2_Yb7bF-1">
          <mxGeometry x="495" y="1170" width="40" height="30" as="geometry" />
        </mxCell>
        <mxCell id="GM3wIo_nSg7rm5uNo50x-163" value="" style="endArrow=none;html=1;rounded=0;" edge="1" parent="NNrM0pU2OySrq2_Yb7bF-1">
          <mxGeometry width="50" height="50" relative="1" as="geometry">
            <mxPoint x="750" y="395" as="sourcePoint" />
            <mxPoint x="760" y="375" as="targetPoint" />
          </mxGeometry>
        </mxCell>
        <mxCell id="GM3wIo_nSg7rm5uNo50x-164" value="32" style="text;html=1;align=center;verticalAlign=middle;resizable=0;points=[];autosize=1;strokeColor=none;fillColor=none;" vertex="1" parent="NNrM0pU2OySrq2_Yb7bF-1">
          <mxGeometry x="735" y="350" width="40" height="30" as="geometry" />
        </mxCell>
        <mxCell id="GM3wIo_nSg7rm5uNo50x-167" value="" style="endArrow=none;html=1;rounded=0;" edge="1" parent="NNrM0pU2OySrq2_Yb7bF-1">
          <mxGeometry width="50" height="50" relative="1" as="geometry">
            <mxPoint x="750" y="465" as="sourcePoint" />
            <mxPoint x="760" y="445" as="targetPoint" />
          </mxGeometry>
        </mxCell>
        <mxCell id="GM3wIo_nSg7rm5uNo50x-168" value="32" style="text;html=1;align=center;verticalAlign=middle;resizable=0;points=[];autosize=1;strokeColor=none;fillColor=none;" vertex="1" parent="NNrM0pU2OySrq2_Yb7bF-1">
          <mxGeometry x="735" y="420" width="40" height="30" as="geometry" />
        </mxCell>
        <mxCell id="GM3wIo_nSg7rm5uNo50x-169" value="" style="endArrow=none;html=1;rounded=0;" edge="1" parent="NNrM0pU2OySrq2_Yb7bF-1">
          <mxGeometry width="50" height="50" relative="1" as="geometry">
            <mxPoint x="750" y="515" as="sourcePoint" />
            <mxPoint x="760" y="495" as="targetPoint" />
          </mxGeometry>
        </mxCell>
        <mxCell id="GM3wIo_nSg7rm5uNo50x-170" value="32" style="text;html=1;align=center;verticalAlign=middle;resizable=0;points=[];autosize=1;strokeColor=none;fillColor=none;" vertex="1" parent="NNrM0pU2OySrq2_Yb7bF-1">
          <mxGeometry x="735" y="470" width="40" height="30" as="geometry" />
        </mxCell>
        <mxCell id="GM3wIo_nSg7rm5uNo50x-171" value="" style="endArrow=none;html=1;rounded=0;" edge="1" parent="NNrM0pU2OySrq2_Yb7bF-1">
          <mxGeometry width="50" height="50" relative="1" as="geometry">
            <mxPoint x="1100" y="500" as="sourcePoint" />
            <mxPoint x="1110" y="480" as="targetPoint" />
          </mxGeometry>
        </mxCell>
        <mxCell id="GM3wIo_nSg7rm5uNo50x-172" value="32" style="text;html=1;align=center;verticalAlign=middle;resizable=0;points=[];autosize=1;strokeColor=none;fillColor=none;" vertex="1" parent="NNrM0pU2OySrq2_Yb7bF-1">
          <mxGeometry x="1085" y="455" width="40" height="30" as="geometry" />
        </mxCell>
        <mxCell id="GM3wIo_nSg7rm5uNo50x-173" value="" style="endArrow=none;html=1;rounded=0;" edge="1" parent="NNrM0pU2OySrq2_Yb7bF-1">
          <mxGeometry width="50" height="50" relative="1" as="geometry">
            <mxPoint x="960" y="105" as="sourcePoint" />
            <mxPoint x="970" y="85" as="targetPoint" />
          </mxGeometry>
        </mxCell>
        <mxCell id="GM3wIo_nSg7rm5uNo50x-174" value="5" style="text;html=1;align=center;verticalAlign=middle;resizable=0;points=[];autosize=1;strokeColor=none;fillColor=none;" vertex="1" parent="NNrM0pU2OySrq2_Yb7bF-1">
          <mxGeometry x="970" y="80" width="30" height="30" as="geometry" />
        </mxCell>
        <mxCell id="GM3wIo_nSg7rm5uNo50x-175" value="" style="endArrow=none;html=1;rounded=0;" edge="1" parent="NNrM0pU2OySrq2_Yb7bF-1">
          <mxGeometry width="50" height="50" relative="1" as="geometry">
            <mxPoint x="960" y="1195" as="sourcePoint" />
            <mxPoint x="970" y="1175" as="targetPoint" />
          </mxGeometry>
        </mxCell>
        <mxCell id="GM3wIo_nSg7rm5uNo50x-176" value="5" style="text;html=1;align=center;verticalAlign=middle;resizable=0;points=[];autosize=1;strokeColor=none;fillColor=none;" vertex="1" parent="NNrM0pU2OySrq2_Yb7bF-1">
          <mxGeometry x="970" y="1170" width="30" height="30" as="geometry" />
        </mxCell>
        <mxCell id="GM3wIo_nSg7rm5uNo50x-179" value="" style="endArrow=none;html=1;rounded=0;" edge="1" parent="NNrM0pU2OySrq2_Yb7bF-1">
          <mxGeometry width="50" height="50" relative="1" as="geometry">
            <mxPoint x="1100" y="925" as="sourcePoint" />
            <mxPoint x="1110" y="905" as="targetPoint" />
          </mxGeometry>
        </mxCell>
        <mxCell id="GM3wIo_nSg7rm5uNo50x-180" value="32" style="text;html=1;align=center;verticalAlign=middle;resizable=0;points=[];autosize=1;strokeColor=none;fillColor=none;" vertex="1" parent="NNrM0pU2OySrq2_Yb7bF-1">
          <mxGeometry x="1085" y="880" width="40" height="30" as="geometry" />
        </mxCell>
        <mxCell id="GM3wIo_nSg7rm5uNo50x-181" value="&lt;font style=&quot;font-size: 40px;&quot;&gt;&lt;b&gt;Register File&lt;/b&gt;&lt;/font&gt;" style="text;html=1;align=center;verticalAlign=middle;whiteSpace=wrap;rounded=0;" vertex="1" parent="NNrM0pU2OySrq2_Yb7bF-1">
          <mxGeometry x="295" y="200" width="610" height="60" as="geometry" />
        </mxCell>
      </root>
    </mxGraphModel>
  </diagram>
  <diagram id="K_wj17C-znLxqFBuZ9HC" name="Immediate Generator">
    <mxGraphModel dx="2625" dy="1573" grid="1" gridSize="10" guides="1" tooltips="1" connect="1" arrows="1" fold="1" page="1" pageScale="1" pageWidth="2000" pageHeight="2000" math="0" shadow="0">
      <root>
        <mxCell id="0" />
        <mxCell id="1" parent="0" />
        <mxCell id="686_KzCgrmxFZ1wmUm0P-10" value="" style="group" vertex="1" connectable="0" parent="1">
          <mxGeometry x="690" y="100" width="1220" height="1220" as="geometry" />
        </mxCell>
        <mxCell id="fREnBq37EPFdL1pldypR-172" value="" style="rounded=0;whiteSpace=wrap;html=1;fillColor=#dae8fc;strokeColor=#6c8ebf;" parent="686_KzCgrmxFZ1wmUm0P-10" vertex="1">
          <mxGeometry x="130" width="890" height="1100" as="geometry" />
        </mxCell>
        <mxCell id="fREnBq37EPFdL1pldypR-46" style="edgeStyle=orthogonalEdgeStyle;rounded=0;orthogonalLoop=1;jettySize=auto;html=1;entryX=0.688;entryY=0.952;entryDx=0;entryDy=0;entryPerimeter=0;" parent="686_KzCgrmxFZ1wmUm0P-10" source="fREnBq37EPFdL1pldypR-1" target="fREnBq37EPFdL1pldypR-3" edge="1">
          <mxGeometry relative="1" as="geometry">
            <Array as="points">
              <mxPoint x="460" y="280" />
              <mxPoint x="460" y="245" />
            </Array>
          </mxGeometry>
        </mxCell>
        <mxCell id="fREnBq37EPFdL1pldypR-1" value="" style="rounded=0;whiteSpace=wrap;html=1;" parent="686_KzCgrmxFZ1wmUm0P-10" vertex="1">
          <mxGeometry x="400" y="230" width="10" height="100" as="geometry" />
        </mxCell>
        <mxCell id="fREnBq37EPFdL1pldypR-2" value="" style="group;movable=1;resizable=1;rotatable=1;deletable=1;editable=1;locked=0;connectable=1;" parent="686_KzCgrmxFZ1wmUm0P-10" vertex="1" connectable="0">
          <mxGeometry x="470" y="190" width="60" height="80" as="geometry" />
        </mxCell>
        <mxCell id="fREnBq37EPFdL1pldypR-3" value="" style="shape=trapezoid;perimeter=trapezoidPerimeter;whiteSpace=wrap;html=1;fixedSize=1;direction=south;rotation=0;movable=1;resizable=1;rotatable=1;deletable=1;editable=1;locked=0;connectable=1;" parent="fREnBq37EPFdL1pldypR-2" vertex="1">
          <mxGeometry x="25" width="15" height="80" as="geometry" />
        </mxCell>
        <mxCell id="fREnBq37EPFdL1pldypR-4" value="0" style="text;html=1;align=center;verticalAlign=middle;whiteSpace=wrap;rounded=0;movable=1;resizable=1;rotatable=1;deletable=1;editable=1;locked=0;connectable=1;" parent="fREnBq37EPFdL1pldypR-2" vertex="1">
          <mxGeometry x="30" y="10" height="30" as="geometry" />
        </mxCell>
        <mxCell id="fREnBq37EPFdL1pldypR-5" value="1" style="text;html=1;align=center;verticalAlign=middle;whiteSpace=wrap;rounded=0;movable=1;resizable=1;rotatable=1;deletable=1;editable=1;locked=0;connectable=1;" parent="fREnBq37EPFdL1pldypR-2" vertex="1">
          <mxGeometry x="30" y="40" height="30" as="geometry" />
        </mxCell>
        <mxCell id="fREnBq37EPFdL1pldypR-6" value="" style="group;movable=1;resizable=1;rotatable=1;deletable=1;editable=1;locked=0;connectable=1;" parent="686_KzCgrmxFZ1wmUm0P-10" vertex="1" connectable="0">
          <mxGeometry x="580" y="130" width="60" height="80" as="geometry" />
        </mxCell>
        <mxCell id="fREnBq37EPFdL1pldypR-7" value="" style="shape=trapezoid;perimeter=trapezoidPerimeter;whiteSpace=wrap;html=1;fixedSize=1;direction=south;rotation=0;movable=1;resizable=1;rotatable=1;deletable=1;editable=1;locked=0;connectable=1;" parent="fREnBq37EPFdL1pldypR-6" vertex="1">
          <mxGeometry x="25" width="15" height="80" as="geometry" />
        </mxCell>
        <mxCell id="fREnBq37EPFdL1pldypR-8" value="0" style="text;html=1;align=center;verticalAlign=middle;whiteSpace=wrap;rounded=0;movable=1;resizable=1;rotatable=1;deletable=1;editable=1;locked=0;connectable=1;" parent="fREnBq37EPFdL1pldypR-6" vertex="1">
          <mxGeometry x="30" y="10" height="30" as="geometry" />
        </mxCell>
        <mxCell id="fREnBq37EPFdL1pldypR-9" value="1" style="text;html=1;align=center;verticalAlign=middle;whiteSpace=wrap;rounded=0;movable=1;resizable=1;rotatable=1;deletable=1;editable=1;locked=0;connectable=1;" parent="fREnBq37EPFdL1pldypR-6" vertex="1">
          <mxGeometry x="30" y="40" height="30" as="geometry" />
        </mxCell>
        <mxCell id="fREnBq37EPFdL1pldypR-63" style="edgeStyle=orthogonalEdgeStyle;rounded=0;orthogonalLoop=1;jettySize=auto;html=1;entryX=0.697;entryY=1.099;entryDx=0;entryDy=0;entryPerimeter=0;" parent="686_KzCgrmxFZ1wmUm0P-10" source="fREnBq37EPFdL1pldypR-20" target="fREnBq37EPFdL1pldypR-22" edge="1">
          <mxGeometry relative="1" as="geometry">
            <Array as="points">
              <mxPoint x="470" y="570" />
              <mxPoint x="470" y="536" />
            </Array>
          </mxGeometry>
        </mxCell>
        <mxCell id="fREnBq37EPFdL1pldypR-20" value="" style="rounded=0;whiteSpace=wrap;html=1;" parent="686_KzCgrmxFZ1wmUm0P-10" vertex="1">
          <mxGeometry x="400" y="520" width="10" height="100" as="geometry" />
        </mxCell>
        <mxCell id="fREnBq37EPFdL1pldypR-21" value="" style="group;movable=1;resizable=1;rotatable=1;deletable=1;editable=1;locked=0;connectable=1;" parent="686_KzCgrmxFZ1wmUm0P-10" vertex="1" connectable="0">
          <mxGeometry x="470" y="480" width="60" height="80" as="geometry" />
        </mxCell>
        <mxCell id="fREnBq37EPFdL1pldypR-22" value="" style="shape=trapezoid;perimeter=trapezoidPerimeter;whiteSpace=wrap;html=1;fixedSize=1;direction=south;rotation=0;movable=1;resizable=1;rotatable=1;deletable=1;editable=1;locked=0;connectable=1;" parent="fREnBq37EPFdL1pldypR-21" vertex="1">
          <mxGeometry x="25" width="15" height="80" as="geometry" />
        </mxCell>
        <mxCell id="fREnBq37EPFdL1pldypR-23" value="0" style="text;html=1;align=center;verticalAlign=middle;whiteSpace=wrap;rounded=0;movable=1;resizable=1;rotatable=1;deletable=1;editable=1;locked=0;connectable=1;" parent="fREnBq37EPFdL1pldypR-21" vertex="1">
          <mxGeometry x="30" y="10" height="30" as="geometry" />
        </mxCell>
        <mxCell id="fREnBq37EPFdL1pldypR-24" value="1" style="text;html=1;align=center;verticalAlign=middle;whiteSpace=wrap;rounded=0;movable=1;resizable=1;rotatable=1;deletable=1;editable=1;locked=0;connectable=1;" parent="fREnBq37EPFdL1pldypR-21" vertex="1">
          <mxGeometry x="30" y="40" height="30" as="geometry" />
        </mxCell>
        <mxCell id="fREnBq37EPFdL1pldypR-162" style="edgeStyle=orthogonalEdgeStyle;rounded=0;orthogonalLoop=1;jettySize=auto;html=1;entryX=1;entryY=0.5;entryDx=0;entryDy=0;exitX=0.5;exitY=0;exitDx=0;exitDy=0;" parent="686_KzCgrmxFZ1wmUm0P-10" source="fREnBq37EPFdL1pldypR-27" target="fREnBq37EPFdL1pldypR-7" edge="1">
          <mxGeometry relative="1" as="geometry" />
        </mxCell>
        <mxCell id="fREnBq37EPFdL1pldypR-25" value="" style="group;movable=1;resizable=1;rotatable=1;deletable=1;editable=1;locked=0;connectable=1;" parent="686_KzCgrmxFZ1wmUm0P-10" vertex="1" connectable="0">
          <mxGeometry x="580" y="420" width="60" height="80" as="geometry" />
        </mxCell>
        <mxCell id="fREnBq37EPFdL1pldypR-26" value="" style="shape=trapezoid;perimeter=trapezoidPerimeter;whiteSpace=wrap;html=1;fixedSize=1;direction=south;rotation=0;movable=1;resizable=1;rotatable=1;deletable=1;editable=1;locked=0;connectable=1;" parent="fREnBq37EPFdL1pldypR-25" vertex="1">
          <mxGeometry x="25" width="15" height="80" as="geometry" />
        </mxCell>
        <mxCell id="fREnBq37EPFdL1pldypR-27" value="0" style="text;html=1;align=center;verticalAlign=middle;whiteSpace=wrap;rounded=0;movable=1;resizable=1;rotatable=1;deletable=1;editable=1;locked=0;connectable=1;" parent="fREnBq37EPFdL1pldypR-25" vertex="1">
          <mxGeometry x="30" y="10" height="30" as="geometry" />
        </mxCell>
        <mxCell id="fREnBq37EPFdL1pldypR-28" value="1" style="text;html=1;align=center;verticalAlign=middle;whiteSpace=wrap;rounded=0;movable=1;resizable=1;rotatable=1;deletable=1;editable=1;locked=0;connectable=1;" parent="fREnBq37EPFdL1pldypR-25" vertex="1">
          <mxGeometry x="30" y="40" height="30" as="geometry" />
        </mxCell>
        <mxCell id="fREnBq37EPFdL1pldypR-92" style="edgeStyle=orthogonalEdgeStyle;rounded=0;orthogonalLoop=1;jettySize=auto;html=1;entryX=0.685;entryY=1.039;entryDx=0;entryDy=0;entryPerimeter=0;" parent="686_KzCgrmxFZ1wmUm0P-10" source="fREnBq37EPFdL1pldypR-29" target="fREnBq37EPFdL1pldypR-31" edge="1">
          <mxGeometry relative="1" as="geometry">
            <Array as="points">
              <mxPoint x="460" y="960" />
              <mxPoint x="460" y="925" />
            </Array>
          </mxGeometry>
        </mxCell>
        <mxCell id="fREnBq37EPFdL1pldypR-29" value="" style="rounded=0;whiteSpace=wrap;html=1;" parent="686_KzCgrmxFZ1wmUm0P-10" vertex="1">
          <mxGeometry x="400" y="910" width="10" height="100" as="geometry" />
        </mxCell>
        <mxCell id="fREnBq37EPFdL1pldypR-30" value="" style="group;movable=1;resizable=1;rotatable=1;deletable=1;editable=1;locked=0;connectable=1;" parent="686_KzCgrmxFZ1wmUm0P-10" vertex="1" connectable="0">
          <mxGeometry x="470" y="870" width="60" height="80" as="geometry" />
        </mxCell>
        <mxCell id="fREnBq37EPFdL1pldypR-31" value="" style="shape=trapezoid;perimeter=trapezoidPerimeter;whiteSpace=wrap;html=1;fixedSize=1;direction=south;rotation=0;movable=1;resizable=1;rotatable=1;deletable=1;editable=1;locked=0;connectable=1;" parent="fREnBq37EPFdL1pldypR-30" vertex="1">
          <mxGeometry x="25" width="15" height="80" as="geometry" />
        </mxCell>
        <mxCell id="fREnBq37EPFdL1pldypR-32" value="0" style="text;html=1;align=center;verticalAlign=middle;whiteSpace=wrap;rounded=0;movable=1;resizable=1;rotatable=1;deletable=1;editable=1;locked=0;connectable=1;" parent="fREnBq37EPFdL1pldypR-30" vertex="1">
          <mxGeometry x="30" y="10" height="30" as="geometry" />
        </mxCell>
        <mxCell id="fREnBq37EPFdL1pldypR-33" value="1" style="text;html=1;align=center;verticalAlign=middle;whiteSpace=wrap;rounded=0;movable=1;resizable=1;rotatable=1;deletable=1;editable=1;locked=0;connectable=1;" parent="fREnBq37EPFdL1pldypR-30" vertex="1">
          <mxGeometry x="30" y="40" height="30" as="geometry" />
        </mxCell>
        <mxCell id="fREnBq37EPFdL1pldypR-161" style="edgeStyle=orthogonalEdgeStyle;rounded=0;orthogonalLoop=1;jettySize=auto;html=1;exitX=0;exitY=0.5;exitDx=0;exitDy=0;entryX=0.836;entryY=0.559;entryDx=0;entryDy=0;entryPerimeter=0;" parent="686_KzCgrmxFZ1wmUm0P-10" source="fREnBq37EPFdL1pldypR-35" target="fREnBq37EPFdL1pldypR-26" edge="1">
          <mxGeometry relative="1" as="geometry">
            <Array as="points">
              <mxPoint x="613" y="655" />
              <mxPoint x="613" y="655" />
              <mxPoint x="613" y="494" />
              <mxPoint x="612" y="494" />
            </Array>
          </mxGeometry>
        </mxCell>
        <mxCell id="fREnBq37EPFdL1pldypR-34" value="" style="group;movable=1;resizable=1;rotatable=1;deletable=1;editable=1;locked=0;connectable=1;" parent="686_KzCgrmxFZ1wmUm0P-10" vertex="1" connectable="0">
          <mxGeometry x="580" y="810" width="60" height="80" as="geometry" />
        </mxCell>
        <mxCell id="fREnBq37EPFdL1pldypR-35" value="" style="shape=trapezoid;perimeter=trapezoidPerimeter;whiteSpace=wrap;html=1;fixedSize=1;direction=south;rotation=0;movable=1;resizable=1;rotatable=1;deletable=1;editable=1;locked=0;connectable=1;" parent="fREnBq37EPFdL1pldypR-34" vertex="1">
          <mxGeometry x="25" width="15" height="80" as="geometry" />
        </mxCell>
        <mxCell id="fREnBq37EPFdL1pldypR-36" value="0" style="text;html=1;align=center;verticalAlign=middle;whiteSpace=wrap;rounded=0;movable=1;resizable=1;rotatable=1;deletable=1;editable=1;locked=0;connectable=1;" parent="fREnBq37EPFdL1pldypR-34" vertex="1">
          <mxGeometry x="30" y="10" height="30" as="geometry" />
        </mxCell>
        <mxCell id="fREnBq37EPFdL1pldypR-37" value="1" style="text;html=1;align=center;verticalAlign=middle;whiteSpace=wrap;rounded=0;movable=1;resizable=1;rotatable=1;deletable=1;editable=1;locked=0;connectable=1;" parent="fREnBq37EPFdL1pldypR-34" vertex="1">
          <mxGeometry x="30" y="40" height="30" as="geometry" />
        </mxCell>
        <mxCell id="fREnBq37EPFdL1pldypR-38" value="" style="rounded=0;whiteSpace=wrap;html=1;" parent="686_KzCgrmxFZ1wmUm0P-10" vertex="1">
          <mxGeometry x="400" y="690" width="10" height="100" as="geometry" />
        </mxCell>
        <mxCell id="fREnBq37EPFdL1pldypR-40" value="" style="shape=trapezoid;perimeter=trapezoidPerimeter;whiteSpace=wrap;html=1;fixedSize=1;direction=south;" parent="686_KzCgrmxFZ1wmUm0P-10" vertex="1">
          <mxGeometry x="870" y="370" width="30" height="320" as="geometry" />
        </mxCell>
        <mxCell id="fREnBq37EPFdL1pldypR-42" style="edgeStyle=orthogonalEdgeStyle;rounded=0;orthogonalLoop=1;jettySize=auto;html=1;entryX=0.099;entryY=0.26;entryDx=0;entryDy=0;exitX=0.416;exitY=0.66;exitDx=0;exitDy=0;exitPerimeter=0;entryPerimeter=0;" parent="686_KzCgrmxFZ1wmUm0P-10" source="fREnBq37EPFdL1pldypR-81" target="fREnBq37EPFdL1pldypR-1" edge="1">
          <mxGeometry relative="1" as="geometry">
            <Array as="points">
              <mxPoint x="400" y="257" />
            </Array>
          </mxGeometry>
        </mxCell>
        <mxCell id="fREnBq37EPFdL1pldypR-57" style="edgeStyle=orthogonalEdgeStyle;rounded=0;orthogonalLoop=1;jettySize=auto;html=1;entryX=0.5;entryY=0;entryDx=0;entryDy=0;" parent="686_KzCgrmxFZ1wmUm0P-10" source="fREnBq37EPFdL1pldypR-41" target="fREnBq37EPFdL1pldypR-56" edge="1">
          <mxGeometry relative="1" as="geometry" />
        </mxCell>
        <mxCell id="fREnBq37EPFdL1pldypR-41" value="" style="shape=ellipse;fillColor=#000000;strokeColor=none;html=1;sketch=0;strokeWidth=1;rotation=0;" parent="686_KzCgrmxFZ1wmUm0P-10" vertex="1">
          <mxGeometry x="280" y="210" width="4" height="4" as="geometry" />
        </mxCell>
        <mxCell id="fREnBq37EPFdL1pldypR-44" style="edgeStyle=orthogonalEdgeStyle;rounded=0;orthogonalLoop=1;jettySize=auto;html=1;entryX=0;entryY=0.75;entryDx=0;entryDy=0;" parent="686_KzCgrmxFZ1wmUm0P-10" source="fREnBq37EPFdL1pldypR-43" target="fREnBq37EPFdL1pldypR-1" edge="1">
          <mxGeometry relative="1" as="geometry" />
        </mxCell>
        <mxCell id="fREnBq37EPFdL1pldypR-43" value="20h&#39;FFFFF" style="text;html=1;align=center;verticalAlign=middle;resizable=0;points=[];autosize=1;strokeColor=none;fillColor=none;" parent="686_KzCgrmxFZ1wmUm0P-10" vertex="1">
          <mxGeometry x="160" y="290" width="80" height="30" as="geometry" />
        </mxCell>
        <mxCell id="fREnBq37EPFdL1pldypR-48" value="" style="shape=ellipse;fillColor=#000000;strokeColor=none;html=1;sketch=0;strokeWidth=1;rotation=0;" parent="686_KzCgrmxFZ1wmUm0P-10" vertex="1">
          <mxGeometry x="420" y="210" width="4" height="4" as="geometry" />
        </mxCell>
        <mxCell id="fREnBq37EPFdL1pldypR-51" style="edgeStyle=orthogonalEdgeStyle;rounded=0;orthogonalLoop=1;jettySize=auto;html=1;entryX=0.459;entryY=0.588;entryDx=0;entryDy=0;entryPerimeter=0;" parent="686_KzCgrmxFZ1wmUm0P-10" source="fREnBq37EPFdL1pldypR-41" target="fREnBq37EPFdL1pldypR-48" edge="1">
          <mxGeometry relative="1" as="geometry" />
        </mxCell>
        <mxCell id="fREnBq37EPFdL1pldypR-52" style="edgeStyle=orthogonalEdgeStyle;rounded=0;orthogonalLoop=1;jettySize=auto;html=1;entryX=0.323;entryY=0.914;entryDx=0;entryDy=0;entryPerimeter=0;" parent="686_KzCgrmxFZ1wmUm0P-10" source="fREnBq37EPFdL1pldypR-48" target="fREnBq37EPFdL1pldypR-3" edge="1">
          <mxGeometry relative="1" as="geometry" />
        </mxCell>
        <mxCell id="fREnBq37EPFdL1pldypR-59" style="edgeStyle=orthogonalEdgeStyle;rounded=0;orthogonalLoop=1;jettySize=auto;html=1;entryX=0;entryY=0.5;entryDx=0;entryDy=0;" parent="686_KzCgrmxFZ1wmUm0P-10" source="fREnBq37EPFdL1pldypR-56" target="fREnBq37EPFdL1pldypR-58" edge="1">
          <mxGeometry relative="1" as="geometry" />
        </mxCell>
        <mxCell id="fREnBq37EPFdL1pldypR-69" style="edgeStyle=orthogonalEdgeStyle;rounded=0;orthogonalLoop=1;jettySize=auto;html=1;entryX=0;entryY=0.25;entryDx=0;entryDy=0;" parent="686_KzCgrmxFZ1wmUm0P-10" source="fREnBq37EPFdL1pldypR-56" target="fREnBq37EPFdL1pldypR-20" edge="1">
          <mxGeometry relative="1" as="geometry">
            <Array as="points">
              <mxPoint x="282" y="545" />
            </Array>
          </mxGeometry>
        </mxCell>
        <mxCell id="fREnBq37EPFdL1pldypR-88" style="edgeStyle=orthogonalEdgeStyle;rounded=0;orthogonalLoop=1;jettySize=auto;html=1;entryX=0;entryY=0.25;entryDx=0;entryDy=0;exitX=0.525;exitY=0.509;exitDx=0;exitDy=0;exitPerimeter=0;" parent="686_KzCgrmxFZ1wmUm0P-10" source="fREnBq37EPFdL1pldypR-154" target="fREnBq37EPFdL1pldypR-29" edge="1">
          <mxGeometry relative="1" as="geometry">
            <Array as="points">
              <mxPoint x="372" y="935" />
            </Array>
          </mxGeometry>
        </mxCell>
        <mxCell id="fREnBq37EPFdL1pldypR-95" style="edgeStyle=orthogonalEdgeStyle;rounded=0;orthogonalLoop=1;jettySize=auto;html=1;entryX=0.5;entryY=0;entryDx=0;entryDy=0;" parent="686_KzCgrmxFZ1wmUm0P-10" source="fREnBq37EPFdL1pldypR-56" target="fREnBq37EPFdL1pldypR-94" edge="1">
          <mxGeometry relative="1" as="geometry" />
        </mxCell>
        <mxCell id="fREnBq37EPFdL1pldypR-56" value="" style="shape=ellipse;fillColor=#000000;strokeColor=none;html=1;sketch=0;strokeWidth=1;rotation=0;" parent="686_KzCgrmxFZ1wmUm0P-10" vertex="1">
          <mxGeometry x="280" y="500" width="4" height="4" as="geometry" />
        </mxCell>
        <mxCell id="fREnBq37EPFdL1pldypR-61" style="edgeStyle=orthogonalEdgeStyle;rounded=0;orthogonalLoop=1;jettySize=auto;html=1;entryX=0.3;entryY=0.975;entryDx=0;entryDy=0;entryPerimeter=0;exitX=0.344;exitY=0.758;exitDx=0;exitDy=0;exitPerimeter=0;" parent="686_KzCgrmxFZ1wmUm0P-10" source="fREnBq37EPFdL1pldypR-58" target="fREnBq37EPFdL1pldypR-22" edge="1">
          <mxGeometry relative="1" as="geometry">
            <mxPoint x="490" y="500" as="targetPoint" />
            <Array as="points">
              <mxPoint x="460" y="504" />
            </Array>
          </mxGeometry>
        </mxCell>
        <mxCell id="fREnBq37EPFdL1pldypR-68" style="edgeStyle=orthogonalEdgeStyle;rounded=0;orthogonalLoop=1;jettySize=auto;html=1;entryX=0.698;entryY=1.099;entryDx=0;entryDy=0;entryPerimeter=0;" parent="686_KzCgrmxFZ1wmUm0P-10" source="fREnBq37EPFdL1pldypR-58" target="fREnBq37EPFdL1pldypR-26" edge="1">
          <mxGeometry relative="1" as="geometry">
            <Array as="points">
              <mxPoint x="442" y="476" />
            </Array>
            <mxPoint x="600" y="475" as="targetPoint" />
          </mxGeometry>
        </mxCell>
        <mxCell id="fREnBq37EPFdL1pldypR-58" value="" style="shape=ellipse;fillColor=#000000;strokeColor=none;html=1;sketch=0;strokeWidth=1;rotation=0;" parent="686_KzCgrmxFZ1wmUm0P-10" vertex="1">
          <mxGeometry x="440" y="500" width="4" height="4" as="geometry" />
        </mxCell>
        <mxCell id="fREnBq37EPFdL1pldypR-64" style="edgeStyle=orthogonalEdgeStyle;rounded=0;orthogonalLoop=1;jettySize=auto;html=1;entryX=0.25;entryY=1;entryDx=0;entryDy=0;" parent="686_KzCgrmxFZ1wmUm0P-10" source="fREnBq37EPFdL1pldypR-3" target="fREnBq37EPFdL1pldypR-7" edge="1">
          <mxGeometry relative="1" as="geometry" />
        </mxCell>
        <mxCell id="fREnBq37EPFdL1pldypR-65" style="edgeStyle=orthogonalEdgeStyle;rounded=0;orthogonalLoop=1;jettySize=auto;html=1;exitX=0.5;exitY=1;exitDx=0;exitDy=0;entryX=0.673;entryY=1.048;entryDx=0;entryDy=0;entryPerimeter=0;" parent="686_KzCgrmxFZ1wmUm0P-10" source="fREnBq37EPFdL1pldypR-48" target="fREnBq37EPFdL1pldypR-7" edge="1">
          <mxGeometry relative="1" as="geometry">
            <Array as="points">
              <mxPoint x="422" y="184" />
              <mxPoint x="515" y="184" />
            </Array>
          </mxGeometry>
        </mxCell>
        <mxCell id="fREnBq37EPFdL1pldypR-70" style="edgeStyle=orthogonalEdgeStyle;rounded=0;orthogonalLoop=1;jettySize=auto;html=1;entryX=0;entryY=0.75;entryDx=0;entryDy=0;" parent="686_KzCgrmxFZ1wmUm0P-10" source="fREnBq37EPFdL1pldypR-71" edge="1">
          <mxGeometry relative="1" as="geometry">
            <mxPoint x="400" y="595" as="targetPoint" />
          </mxGeometry>
        </mxCell>
        <mxCell id="fREnBq37EPFdL1pldypR-71" value="19h&#39;7FFFF" style="text;html=1;align=center;verticalAlign=middle;resizable=0;points=[];autosize=1;strokeColor=none;fillColor=none;" parent="686_KzCgrmxFZ1wmUm0P-10" vertex="1">
          <mxGeometry x="160" y="580" width="80" height="30" as="geometry" />
        </mxCell>
        <mxCell id="fREnBq37EPFdL1pldypR-77" value="" style="shape=ellipse;fillColor=#000000;strokeColor=none;html=1;sketch=0;strokeWidth=1;rotation=0;" parent="686_KzCgrmxFZ1wmUm0P-10" vertex="1">
          <mxGeometry x="320" y="210" width="4" height="4" as="geometry" />
        </mxCell>
        <mxCell id="fREnBq37EPFdL1pldypR-80" value="" style="edgeStyle=orthogonalEdgeStyle;rounded=0;orthogonalLoop=1;jettySize=auto;html=1;entryX=0.5;entryY=0;entryDx=0;entryDy=0;exitX=0.416;exitY=0.66;exitDx=0;exitDy=0;exitPerimeter=0;" parent="686_KzCgrmxFZ1wmUm0P-10" source="fREnBq37EPFdL1pldypR-77" target="fREnBq37EPFdL1pldypR-81" edge="1">
          <mxGeometry relative="1" as="geometry">
            <mxPoint x="322" y="213" as="sourcePoint" />
            <mxPoint x="400" y="255" as="targetPoint" />
            <Array as="points" />
          </mxGeometry>
        </mxCell>
        <mxCell id="fREnBq37EPFdL1pldypR-82" style="edgeStyle=orthogonalEdgeStyle;rounded=0;orthogonalLoop=1;jettySize=auto;html=1;entryX=-0.015;entryY=0.303;entryDx=0;entryDy=0;entryPerimeter=0;" parent="686_KzCgrmxFZ1wmUm0P-10" source="fREnBq37EPFdL1pldypR-81" target="fREnBq37EPFdL1pldypR-38" edge="1">
          <mxGeometry relative="1" as="geometry">
            <mxPoint x="322" y="724.1025641025641" as="targetPoint" />
            <Array as="points">
              <mxPoint x="322" y="720" />
            </Array>
          </mxGeometry>
        </mxCell>
        <mxCell id="fREnBq37EPFdL1pldypR-81" value="" style="shape=ellipse;fillColor=#000000;strokeColor=none;html=1;sketch=0;strokeWidth=1;rotation=0;" parent="686_KzCgrmxFZ1wmUm0P-10" vertex="1">
          <mxGeometry x="320" y="254" width="4" height="4" as="geometry" />
        </mxCell>
        <mxCell id="fREnBq37EPFdL1pldypR-83" style="edgeStyle=orthogonalEdgeStyle;rounded=0;orthogonalLoop=1;jettySize=auto;html=1;entryX=0;entryY=0.75;entryDx=0;entryDy=0;" parent="686_KzCgrmxFZ1wmUm0P-10" source="fREnBq37EPFdL1pldypR-84" edge="1">
          <mxGeometry relative="1" as="geometry">
            <mxPoint x="400" y="765" as="targetPoint" />
          </mxGeometry>
        </mxCell>
        <mxCell id="fREnBq37EPFdL1pldypR-84" value="12h&#39;000" style="text;html=1;align=center;verticalAlign=middle;resizable=0;points=[];autosize=1;strokeColor=none;fillColor=none;" parent="686_KzCgrmxFZ1wmUm0P-10" vertex="1">
          <mxGeometry x="165" y="750" width="70" height="30" as="geometry" />
        </mxCell>
        <mxCell id="fREnBq37EPFdL1pldypR-85" style="edgeStyle=orthogonalEdgeStyle;rounded=0;orthogonalLoop=1;jettySize=auto;html=1;entryX=0.25;entryY=1;entryDx=0;entryDy=0;" parent="686_KzCgrmxFZ1wmUm0P-10" source="fREnBq37EPFdL1pldypR-7" target="fREnBq37EPFdL1pldypR-40" edge="1">
          <mxGeometry relative="1" as="geometry" />
        </mxCell>
        <mxCell id="fREnBq37EPFdL1pldypR-86" style="edgeStyle=orthogonalEdgeStyle;rounded=0;orthogonalLoop=1;jettySize=auto;html=1;" parent="686_KzCgrmxFZ1wmUm0P-10" source="fREnBq37EPFdL1pldypR-26" edge="1">
          <mxGeometry relative="1" as="geometry">
            <Array as="points">
              <mxPoint x="710" y="460" />
              <mxPoint x="710" y="510" />
              <mxPoint x="869" y="510" />
            </Array>
            <mxPoint x="870" y="510" as="targetPoint" />
          </mxGeometry>
        </mxCell>
        <mxCell id="fREnBq37EPFdL1pldypR-87" style="edgeStyle=orthogonalEdgeStyle;rounded=0;orthogonalLoop=1;jettySize=auto;html=1;entryX=0.653;entryY=0.996;entryDx=0;entryDy=0;entryPerimeter=0;" parent="686_KzCgrmxFZ1wmUm0P-10" source="fREnBq37EPFdL1pldypR-38" target="fREnBq37EPFdL1pldypR-40" edge="1">
          <mxGeometry relative="1" as="geometry" />
        </mxCell>
        <mxCell id="fREnBq37EPFdL1pldypR-89" style="edgeStyle=orthogonalEdgeStyle;rounded=0;orthogonalLoop=1;jettySize=auto;html=1;entryX=0;entryY=0.75;entryDx=0;entryDy=0;" parent="686_KzCgrmxFZ1wmUm0P-10" source="fREnBq37EPFdL1pldypR-90" edge="1">
          <mxGeometry relative="1" as="geometry">
            <mxPoint x="400" y="985" as="targetPoint" />
          </mxGeometry>
        </mxCell>
        <mxCell id="fREnBq37EPFdL1pldypR-90" value="11h&#39;7FF" style="text;html=1;align=center;verticalAlign=middle;resizable=0;points=[];autosize=1;strokeColor=none;fillColor=none;" parent="686_KzCgrmxFZ1wmUm0P-10" vertex="1">
          <mxGeometry x="165" y="970" width="70" height="30" as="geometry" />
        </mxCell>
        <mxCell id="fREnBq37EPFdL1pldypR-94" value="" style="shape=ellipse;fillColor=#000000;strokeColor=none;html=1;sketch=0;strokeWidth=1;rotation=0;" parent="686_KzCgrmxFZ1wmUm0P-10" vertex="1">
          <mxGeometry x="258" y="878" width="4" height="4" as="geometry" />
        </mxCell>
        <mxCell id="fREnBq37EPFdL1pldypR-96" style="edgeStyle=orthogonalEdgeStyle;rounded=0;orthogonalLoop=1;jettySize=auto;html=1;entryX=0.321;entryY=0.927;entryDx=0;entryDy=0;entryPerimeter=0;" parent="686_KzCgrmxFZ1wmUm0P-10" source="fREnBq37EPFdL1pldypR-100" target="fREnBq37EPFdL1pldypR-31" edge="1">
          <mxGeometry relative="1" as="geometry" />
        </mxCell>
        <mxCell id="fREnBq37EPFdL1pldypR-97" style="edgeStyle=orthogonalEdgeStyle;rounded=0;orthogonalLoop=1;jettySize=auto;html=1;entryX=0.324;entryY=1.153;entryDx=0;entryDy=0;entryPerimeter=0;" parent="686_KzCgrmxFZ1wmUm0P-10" source="fREnBq37EPFdL1pldypR-31" target="fREnBq37EPFdL1pldypR-35" edge="1">
          <mxGeometry relative="1" as="geometry" />
        </mxCell>
        <mxCell id="fREnBq37EPFdL1pldypR-99" value="" style="edgeStyle=orthogonalEdgeStyle;rounded=0;orthogonalLoop=1;jettySize=auto;html=1;entryX=0.321;entryY=0.927;entryDx=0;entryDy=0;entryPerimeter=0;" parent="686_KzCgrmxFZ1wmUm0P-10" source="fREnBq37EPFdL1pldypR-94" target="fREnBq37EPFdL1pldypR-100" edge="1">
          <mxGeometry relative="1" as="geometry">
            <mxPoint x="262" y="880" as="sourcePoint" />
            <mxPoint x="496" y="896" as="targetPoint" />
            <Array as="points">
              <mxPoint x="350" y="880" />
              <mxPoint x="350" y="880" />
            </Array>
          </mxGeometry>
        </mxCell>
        <mxCell id="fREnBq37EPFdL1pldypR-100" value="" style="shape=ellipse;fillColor=#000000;strokeColor=none;html=1;sketch=0;strokeWidth=1;rotation=0;" parent="686_KzCgrmxFZ1wmUm0P-10" vertex="1">
          <mxGeometry x="378" y="876" width="4" height="4" as="geometry" />
        </mxCell>
        <mxCell id="fREnBq37EPFdL1pldypR-101" style="edgeStyle=orthogonalEdgeStyle;rounded=0;orthogonalLoop=1;jettySize=auto;html=1;entryX=0.698;entryY=0.94;entryDx=0;entryDy=0;entryPerimeter=0;" parent="686_KzCgrmxFZ1wmUm0P-10" source="fREnBq37EPFdL1pldypR-100" target="fREnBq37EPFdL1pldypR-35" edge="1">
          <mxGeometry relative="1" as="geometry">
            <Array as="points">
              <mxPoint x="380" y="866" />
            </Array>
          </mxGeometry>
        </mxCell>
        <mxCell id="fREnBq37EPFdL1pldypR-104" style="edgeStyle=orthogonalEdgeStyle;rounded=0;orthogonalLoop=1;jettySize=auto;html=1;entryX=0.872;entryY=0.989;entryDx=0;entryDy=0;entryPerimeter=0;" parent="686_KzCgrmxFZ1wmUm0P-10" source="fREnBq37EPFdL1pldypR-35" target="fREnBq37EPFdL1pldypR-40" edge="1">
          <mxGeometry relative="1" as="geometry" />
        </mxCell>
        <mxCell id="fREnBq37EPFdL1pldypR-106" style="edgeStyle=orthogonalEdgeStyle;rounded=0;orthogonalLoop=1;jettySize=auto;html=1;entryX=0;entryY=0.5;entryDx=0;entryDy=0;" parent="686_KzCgrmxFZ1wmUm0P-10" source="fREnBq37EPFdL1pldypR-105" target="fREnBq37EPFdL1pldypR-41" edge="1">
          <mxGeometry relative="1" as="geometry" />
        </mxCell>
        <mxCell id="fREnBq37EPFdL1pldypR-105" value="imm" style="text;html=1;align=center;verticalAlign=middle;resizable=0;points=[];autosize=1;strokeColor=none;fillColor=none;" parent="686_KzCgrmxFZ1wmUm0P-10" vertex="1">
          <mxGeometry y="197" width="50" height="30" as="geometry" />
        </mxCell>
        <mxCell id="fREnBq37EPFdL1pldypR-107" value="" style="endArrow=none;html=1;rounded=0;" parent="686_KzCgrmxFZ1wmUm0P-10" edge="1">
          <mxGeometry width="50" height="50" relative="1" as="geometry">
            <mxPoint x="90" y="214" as="sourcePoint" />
            <mxPoint x="100" y="204" as="targetPoint" />
          </mxGeometry>
        </mxCell>
        <mxCell id="fREnBq37EPFdL1pldypR-108" value="32" style="text;html=1;align=center;verticalAlign=middle;resizable=0;points=[];autosize=1;strokeColor=none;fillColor=none;" parent="686_KzCgrmxFZ1wmUm0P-10" vertex="1">
          <mxGeometry x="80" y="181" width="40" height="30" as="geometry" />
        </mxCell>
        <mxCell id="fREnBq37EPFdL1pldypR-109" value="imm[11:0]" style="text;html=1;align=center;verticalAlign=middle;resizable=0;points=[];autosize=1;strokeColor=none;fillColor=none;" parent="686_KzCgrmxFZ1wmUm0P-10" vertex="1">
          <mxGeometry x="320" y="227" width="80" height="30" as="geometry" />
        </mxCell>
        <mxCell id="fREnBq37EPFdL1pldypR-110" value="" style="endArrow=none;html=1;rounded=0;" parent="686_KzCgrmxFZ1wmUm0P-10" edge="1">
          <mxGeometry width="50" height="50" relative="1" as="geometry">
            <mxPoint x="360" y="261" as="sourcePoint" />
            <mxPoint x="370" y="251" as="targetPoint" />
          </mxGeometry>
        </mxCell>
        <mxCell id="fREnBq37EPFdL1pldypR-111" value="12" style="text;html=1;align=center;verticalAlign=middle;resizable=0;points=[];autosize=1;strokeColor=none;fillColor=none;" parent="686_KzCgrmxFZ1wmUm0P-10" vertex="1">
          <mxGeometry x="342" y="254" width="40" height="30" as="geometry" />
        </mxCell>
        <mxCell id="fREnBq37EPFdL1pldypR-112" value="" style="endArrow=none;html=1;rounded=0;" parent="686_KzCgrmxFZ1wmUm0P-10" edge="1">
          <mxGeometry width="50" height="50" relative="1" as="geometry">
            <mxPoint x="360" y="310" as="sourcePoint" />
            <mxPoint x="370" y="300" as="targetPoint" />
          </mxGeometry>
        </mxCell>
        <mxCell id="fREnBq37EPFdL1pldypR-113" value="20" style="text;html=1;align=center;verticalAlign=middle;resizable=0;points=[];autosize=1;strokeColor=none;fillColor=none;" parent="686_KzCgrmxFZ1wmUm0P-10" vertex="1">
          <mxGeometry x="342" y="300" width="40" height="30" as="geometry" />
        </mxCell>
        <mxCell id="fREnBq37EPFdL1pldypR-114" value="" style="endArrow=none;html=1;rounded=0;" parent="686_KzCgrmxFZ1wmUm0P-10" edge="1">
          <mxGeometry width="50" height="50" relative="1" as="geometry">
            <mxPoint x="342" y="507" as="sourcePoint" />
            <mxPoint x="352" y="497" as="targetPoint" />
          </mxGeometry>
        </mxCell>
        <mxCell id="fREnBq37EPFdL1pldypR-115" value="32" style="text;html=1;align=center;verticalAlign=middle;resizable=0;points=[];autosize=1;strokeColor=none;fillColor=none;" parent="686_KzCgrmxFZ1wmUm0P-10" vertex="1">
          <mxGeometry x="330" y="470" width="40" height="30" as="geometry" />
        </mxCell>
        <mxCell id="fREnBq37EPFdL1pldypR-116" value="" style="endArrow=none;html=1;rounded=0;" parent="686_KzCgrmxFZ1wmUm0P-10" edge="1">
          <mxGeometry width="50" height="50" relative="1" as="geometry">
            <mxPoint x="342" y="550" as="sourcePoint" />
            <mxPoint x="352" y="540" as="targetPoint" />
          </mxGeometry>
        </mxCell>
        <mxCell id="fREnBq37EPFdL1pldypR-117" value="imm[12:0]" style="text;html=1;align=center;verticalAlign=middle;resizable=0;points=[];autosize=1;strokeColor=none;fillColor=none;" parent="686_KzCgrmxFZ1wmUm0P-10" vertex="1">
          <mxGeometry x="324" y="515" width="80" height="30" as="geometry" />
        </mxCell>
        <mxCell id="fREnBq37EPFdL1pldypR-118" value="13" style="text;html=1;align=center;verticalAlign=middle;resizable=0;points=[];autosize=1;strokeColor=none;fillColor=none;" parent="686_KzCgrmxFZ1wmUm0P-10" vertex="1">
          <mxGeometry x="324" y="545" width="40" height="30" as="geometry" />
        </mxCell>
        <mxCell id="fREnBq37EPFdL1pldypR-119" value="" style="endArrow=none;html=1;rounded=0;" parent="686_KzCgrmxFZ1wmUm0P-10" edge="1">
          <mxGeometry width="50" height="50" relative="1" as="geometry">
            <mxPoint x="342" y="600" as="sourcePoint" />
            <mxPoint x="352" y="590" as="targetPoint" />
          </mxGeometry>
        </mxCell>
        <mxCell id="fREnBq37EPFdL1pldypR-120" value="19" style="text;html=1;align=center;verticalAlign=middle;resizable=0;points=[];autosize=1;strokeColor=none;fillColor=none;" parent="686_KzCgrmxFZ1wmUm0P-10" vertex="1">
          <mxGeometry x="324" y="598" width="40" height="30" as="geometry" />
        </mxCell>
        <mxCell id="fREnBq37EPFdL1pldypR-121" value="" style="endArrow=none;html=1;rounded=0;" parent="686_KzCgrmxFZ1wmUm0P-10" edge="1">
          <mxGeometry width="50" height="50" relative="1" as="geometry">
            <mxPoint x="340" y="730" as="sourcePoint" />
            <mxPoint x="350" y="710" as="targetPoint" />
          </mxGeometry>
        </mxCell>
        <mxCell id="fREnBq37EPFdL1pldypR-122" value="20" style="text;html=1;align=center;verticalAlign=middle;resizable=0;points=[];autosize=1;strokeColor=none;fillColor=none;" parent="686_KzCgrmxFZ1wmUm0P-10" vertex="1">
          <mxGeometry x="324" y="725" width="40" height="30" as="geometry" />
        </mxCell>
        <mxCell id="fREnBq37EPFdL1pldypR-123" value="imm[19:0]" style="text;html=1;align=center;verticalAlign=middle;resizable=0;points=[];autosize=1;strokeColor=none;fillColor=none;" parent="686_KzCgrmxFZ1wmUm0P-10" vertex="1">
          <mxGeometry x="320" y="688" width="80" height="30" as="geometry" />
        </mxCell>
        <mxCell id="fREnBq37EPFdL1pldypR-124" value="" style="endArrow=none;html=1;rounded=0;" parent="686_KzCgrmxFZ1wmUm0P-10" edge="1">
          <mxGeometry width="50" height="50" relative="1" as="geometry">
            <mxPoint x="314" y="885" as="sourcePoint" />
            <mxPoint x="324" y="875" as="targetPoint" />
          </mxGeometry>
        </mxCell>
        <mxCell id="fREnBq37EPFdL1pldypR-125" value="32" style="text;html=1;align=center;verticalAlign=middle;resizable=0;points=[];autosize=1;strokeColor=none;fillColor=none;" parent="686_KzCgrmxFZ1wmUm0P-10" vertex="1">
          <mxGeometry x="302" y="850" width="40" height="30" as="geometry" />
        </mxCell>
        <mxCell id="fREnBq37EPFdL1pldypR-126" value="" style="endArrow=none;html=1;rounded=0;" parent="686_KzCgrmxFZ1wmUm0P-10" edge="1">
          <mxGeometry width="50" height="50" relative="1" as="geometry">
            <mxPoint x="314" y="940" as="sourcePoint" />
            <mxPoint x="324" y="930" as="targetPoint" />
          </mxGeometry>
        </mxCell>
        <mxCell id="fREnBq37EPFdL1pldypR-127" value="imm[20:0]" style="text;html=1;align=center;verticalAlign=middle;resizable=0;points=[];autosize=1;strokeColor=none;fillColor=none;" parent="686_KzCgrmxFZ1wmUm0P-10" vertex="1">
          <mxGeometry x="280" y="908" width="80" height="30" as="geometry" />
        </mxCell>
        <mxCell id="fREnBq37EPFdL1pldypR-128" value="21" style="text;html=1;align=center;verticalAlign=middle;resizable=0;points=[];autosize=1;strokeColor=none;fillColor=none;" parent="686_KzCgrmxFZ1wmUm0P-10" vertex="1">
          <mxGeometry x="300" y="938" width="40" height="30" as="geometry" />
        </mxCell>
        <mxCell id="fREnBq37EPFdL1pldypR-129" value="" style="endArrow=none;html=1;rounded=0;" parent="686_KzCgrmxFZ1wmUm0P-10" edge="1">
          <mxGeometry width="50" height="50" relative="1" as="geometry">
            <mxPoint x="314" y="990" as="sourcePoint" />
            <mxPoint x="324" y="980" as="targetPoint" />
          </mxGeometry>
        </mxCell>
        <mxCell id="fREnBq37EPFdL1pldypR-130" value="11" style="text;html=1;align=center;verticalAlign=middle;resizable=0;points=[];autosize=1;strokeColor=none;fillColor=none;" parent="686_KzCgrmxFZ1wmUm0P-10" vertex="1">
          <mxGeometry x="300" y="988" width="40" height="30" as="geometry" />
        </mxCell>
        <mxCell id="fREnBq37EPFdL1pldypR-131" value="" style="shape=ellipse;fillColor=#000000;strokeColor=none;html=1;sketch=0;strokeWidth=1;rotation=0;" parent="686_KzCgrmxFZ1wmUm0P-10" vertex="1">
          <mxGeometry x="382" y="254" width="4" height="4" as="geometry" />
        </mxCell>
        <mxCell id="fREnBq37EPFdL1pldypR-132" style="edgeStyle=orthogonalEdgeStyle;rounded=0;orthogonalLoop=1;jettySize=auto;html=1;entryX=1;entryY=0.25;entryDx=0;entryDy=0;" parent="686_KzCgrmxFZ1wmUm0P-10" source="fREnBq37EPFdL1pldypR-131" target="fREnBq37EPFdL1pldypR-3" edge="1">
          <mxGeometry relative="1" as="geometry">
            <Array as="points">
              <mxPoint x="384" y="350" />
              <mxPoint x="505" y="350" />
            </Array>
          </mxGeometry>
        </mxCell>
        <mxCell id="fREnBq37EPFdL1pldypR-134" value="" style="endArrow=none;html=1;rounded=0;exitX=0.448;exitY=-0.108;exitDx=0;exitDy=0;exitPerimeter=0;entryX=0.665;entryY=0.914;entryDx=0;entryDy=0;entryPerimeter=0;" parent="686_KzCgrmxFZ1wmUm0P-10" edge="1" target="fREnBq37EPFdL1pldypR-135" source="fREnBq37EPFdL1pldypR-136">
          <mxGeometry width="50" height="50" relative="1" as="geometry">
            <mxPoint x="450" y="360" as="sourcePoint" />
            <mxPoint x="470" y="340" as="targetPoint" />
          </mxGeometry>
        </mxCell>
        <mxCell id="fREnBq37EPFdL1pldypR-135" value="1" style="text;html=1;align=center;verticalAlign=middle;resizable=0;points=[];autosize=1;strokeColor=none;fillColor=none;" parent="686_KzCgrmxFZ1wmUm0P-10" vertex="1">
          <mxGeometry x="445" y="318" width="30" height="30" as="geometry" />
        </mxCell>
        <mxCell id="fREnBq37EPFdL1pldypR-136" value="imm[11]" style="text;html=1;align=center;verticalAlign=middle;resizable=0;points=[];autosize=1;strokeColor=none;fillColor=none;" parent="686_KzCgrmxFZ1wmUm0P-10" vertex="1">
          <mxGeometry x="424" y="358" width="70" height="30" as="geometry" />
        </mxCell>
        <mxCell id="fREnBq37EPFdL1pldypR-142" style="edgeStyle=orthogonalEdgeStyle;rounded=0;orthogonalLoop=1;jettySize=auto;html=1;entryX=1;entryY=0.5;entryDx=0;entryDy=0;" parent="686_KzCgrmxFZ1wmUm0P-10" source="fREnBq37EPFdL1pldypR-141" target="fREnBq37EPFdL1pldypR-22" edge="1">
          <mxGeometry relative="1" as="geometry">
            <Array as="points">
              <mxPoint x="372" y="640" />
              <mxPoint x="503" y="640" />
              <mxPoint x="503" y="550" />
            </Array>
          </mxGeometry>
        </mxCell>
        <mxCell id="fREnBq37EPFdL1pldypR-141" value="" style="shape=ellipse;fillColor=#000000;strokeColor=none;html=1;sketch=0;strokeWidth=1;rotation=0;" parent="686_KzCgrmxFZ1wmUm0P-10" vertex="1">
          <mxGeometry x="370" y="541" width="4" height="4" as="geometry" />
        </mxCell>
        <mxCell id="fREnBq37EPFdL1pldypR-143" value="" style="endArrow=none;html=1;rounded=0;exitX=0.424;exitY=-0.097;exitDx=0;exitDy=0;exitPerimeter=0;entryX=0.5;entryY=0.667;entryDx=0;entryDy=0;entryPerimeter=0;" parent="686_KzCgrmxFZ1wmUm0P-10" edge="1" target="fREnBq37EPFdL1pldypR-144" source="fREnBq37EPFdL1pldypR-145">
          <mxGeometry width="50" height="50" relative="1" as="geometry">
            <mxPoint x="440" y="650" as="sourcePoint" />
            <mxPoint x="460" y="630" as="targetPoint" />
          </mxGeometry>
        </mxCell>
        <mxCell id="fREnBq37EPFdL1pldypR-144" value="1" style="text;html=1;align=center;verticalAlign=middle;resizable=0;points=[];autosize=1;strokeColor=none;fillColor=none;" parent="686_KzCgrmxFZ1wmUm0P-10" vertex="1">
          <mxGeometry x="440" y="610" width="30" height="30" as="geometry" />
        </mxCell>
        <mxCell id="fREnBq37EPFdL1pldypR-145" value="imm[12]" style="text;html=1;align=center;verticalAlign=middle;resizable=0;points=[];autosize=1;strokeColor=none;fillColor=none;" parent="686_KzCgrmxFZ1wmUm0P-10" vertex="1">
          <mxGeometry x="415" y="648" width="70" height="30" as="geometry" />
        </mxCell>
        <mxCell id="fREnBq37EPFdL1pldypR-153" value="" style="edgeStyle=orthogonalEdgeStyle;rounded=0;orthogonalLoop=1;jettySize=auto;html=1;entryX=0;entryY=0.25;entryDx=0;entryDy=0;" parent="686_KzCgrmxFZ1wmUm0P-10" source="fREnBq37EPFdL1pldypR-94" target="fREnBq37EPFdL1pldypR-154" edge="1">
          <mxGeometry relative="1" as="geometry">
            <mxPoint x="260" y="882" as="sourcePoint" />
            <mxPoint x="400" y="935" as="targetPoint" />
            <Array as="points">
              <mxPoint x="260" y="935" />
            </Array>
          </mxGeometry>
        </mxCell>
        <mxCell id="fREnBq37EPFdL1pldypR-155" style="edgeStyle=orthogonalEdgeStyle;rounded=0;orthogonalLoop=1;jettySize=auto;html=1;entryX=1;entryY=0.25;entryDx=0;entryDy=0;" parent="686_KzCgrmxFZ1wmUm0P-10" source="fREnBq37EPFdL1pldypR-154" target="fREnBq37EPFdL1pldypR-31" edge="1">
          <mxGeometry relative="1" as="geometry">
            <Array as="points">
              <mxPoint x="372" y="1050" />
              <mxPoint x="505" y="1050" />
            </Array>
          </mxGeometry>
        </mxCell>
        <mxCell id="fREnBq37EPFdL1pldypR-154" value="" style="shape=ellipse;fillColor=#000000;strokeColor=none;html=1;sketch=0;strokeWidth=1;rotation=0;" parent="686_KzCgrmxFZ1wmUm0P-10" vertex="1">
          <mxGeometry x="370" y="934" width="4" height="4" as="geometry" />
        </mxCell>
        <mxCell id="fREnBq37EPFdL1pldypR-156" value="" style="endArrow=none;html=1;rounded=0;exitX=0.372;exitY=-0.079;exitDx=0;exitDy=0;exitPerimeter=0;entryX=0.62;entryY=0.886;entryDx=0;entryDy=0;entryPerimeter=0;" parent="686_KzCgrmxFZ1wmUm0P-10" edge="1" target="fREnBq37EPFdL1pldypR-157" source="fREnBq37EPFdL1pldypR-158">
          <mxGeometry width="50" height="50" relative="1" as="geometry">
            <mxPoint x="420" y="1060" as="sourcePoint" />
            <mxPoint x="444" y="1040" as="targetPoint" />
          </mxGeometry>
        </mxCell>
        <mxCell id="fREnBq37EPFdL1pldypR-157" value="1" style="text;html=1;align=center;verticalAlign=middle;resizable=0;points=[];autosize=1;strokeColor=none;fillColor=none;" parent="686_KzCgrmxFZ1wmUm0P-10" vertex="1">
          <mxGeometry x="420" y="1018" width="30" height="30" as="geometry" />
        </mxCell>
        <mxCell id="fREnBq37EPFdL1pldypR-158" value="imm[20]" style="text;html=1;align=center;verticalAlign=middle;resizable=0;points=[];autosize=1;strokeColor=none;fillColor=none;" parent="686_KzCgrmxFZ1wmUm0P-10" vertex="1">
          <mxGeometry x="400" y="1058" width="70" height="30" as="geometry" />
        </mxCell>
        <mxCell id="fREnBq37EPFdL1pldypR-160" style="edgeStyle=orthogonalEdgeStyle;rounded=0;orthogonalLoop=1;jettySize=auto;html=1;entryX=1;entryY=0.5;entryDx=0;entryDy=0;" parent="686_KzCgrmxFZ1wmUm0P-10" source="fREnBq37EPFdL1pldypR-159" target="fREnBq37EPFdL1pldypR-35" edge="1">
          <mxGeometry relative="1" as="geometry" />
        </mxCell>
        <mxCell id="fREnBq37EPFdL1pldypR-159" value="u" style="text;html=1;align=center;verticalAlign=middle;resizable=0;points=[];autosize=1;strokeColor=none;fillColor=none;" parent="686_KzCgrmxFZ1wmUm0P-10" vertex="1">
          <mxGeometry x="597.5" y="1190" width="30" height="30" as="geometry" />
        </mxCell>
        <mxCell id="fREnBq37EPFdL1pldypR-164" style="edgeStyle=orthogonalEdgeStyle;rounded=0;orthogonalLoop=1;jettySize=auto;html=1;entryX=1;entryY=0.5;entryDx=0;entryDy=0;" parent="686_KzCgrmxFZ1wmUm0P-10" source="fREnBq37EPFdL1pldypR-163" target="fREnBq37EPFdL1pldypR-40" edge="1">
          <mxGeometry relative="1" as="geometry" />
        </mxCell>
        <mxCell id="fREnBq37EPFdL1pldypR-163" value="inst_type" style="text;html=1;align=center;verticalAlign=middle;resizable=0;points=[];autosize=1;strokeColor=none;fillColor=none;" parent="686_KzCgrmxFZ1wmUm0P-10" vertex="1">
          <mxGeometry x="850" y="1190" width="70" height="30" as="geometry" />
        </mxCell>
        <mxCell id="fREnBq37EPFdL1pldypR-165" value="" style="endArrow=none;html=1;rounded=0;" parent="686_KzCgrmxFZ1wmUm0P-10" edge="1">
          <mxGeometry width="50" height="50" relative="1" as="geometry">
            <mxPoint x="880" y="1130" as="sourcePoint" />
            <mxPoint x="890" y="1120" as="targetPoint" />
          </mxGeometry>
        </mxCell>
        <mxCell id="fREnBq37EPFdL1pldypR-166" value="2" style="text;html=1;align=center;verticalAlign=middle;resizable=0;points=[];autosize=1;strokeColor=none;fillColor=none;" parent="686_KzCgrmxFZ1wmUm0P-10" vertex="1">
          <mxGeometry x="890" y="1110" width="30" height="30" as="geometry" />
        </mxCell>
        <mxCell id="fREnBq37EPFdL1pldypR-168" value="" style="endArrow=none;html=1;rounded=0;" parent="686_KzCgrmxFZ1wmUm0P-10" edge="1">
          <mxGeometry width="50" height="50" relative="1" as="geometry">
            <mxPoint x="1150" y="535" as="sourcePoint" />
            <mxPoint x="1160" y="525" as="targetPoint" />
          </mxGeometry>
        </mxCell>
        <mxCell id="fREnBq37EPFdL1pldypR-169" value="32" style="text;html=1;align=center;verticalAlign=middle;resizable=0;points=[];autosize=1;strokeColor=none;fillColor=none;" parent="686_KzCgrmxFZ1wmUm0P-10" vertex="1">
          <mxGeometry x="1130" y="498" width="40" height="30" as="geometry" />
        </mxCell>
        <mxCell id="fREnBq37EPFdL1pldypR-173" value="" style="edgeStyle=orthogonalEdgeStyle;rounded=0;orthogonalLoop=1;jettySize=auto;html=1;" parent="686_KzCgrmxFZ1wmUm0P-10" source="fREnBq37EPFdL1pldypR-40" target="fREnBq37EPFdL1pldypR-170" edge="1">
          <mxGeometry relative="1" as="geometry">
            <mxPoint x="1230" y="530" as="targetPoint" />
            <mxPoint x="900" y="530" as="sourcePoint" />
          </mxGeometry>
        </mxCell>
        <mxCell id="fREnBq37EPFdL1pldypR-170" value="out" style="text;html=1;align=center;verticalAlign=middle;resizable=0;points=[];autosize=1;strokeColor=none;fillColor=none;" parent="686_KzCgrmxFZ1wmUm0P-10" vertex="1">
          <mxGeometry x="1180" y="515" width="40" height="30" as="geometry" />
        </mxCell>
        <mxCell id="686_KzCgrmxFZ1wmUm0P-7" style="edgeStyle=orthogonalEdgeStyle;rounded=0;orthogonalLoop=1;jettySize=auto;html=1;entryX=0.323;entryY=1.007;entryDx=0;entryDy=0;entryPerimeter=0;" edge="1" parent="686_KzCgrmxFZ1wmUm0P-10" source="fREnBq37EPFdL1pldypR-22" target="fREnBq37EPFdL1pldypR-26">
          <mxGeometry relative="1" as="geometry" />
        </mxCell>
        <mxCell id="686_KzCgrmxFZ1wmUm0P-9" value="&lt;font style=&quot;font-size: 40px;&quot;&gt;&lt;b style=&quot;&quot;&gt;Immediate Generator&lt;/b&gt;&lt;/font&gt;" style="text;html=1;align=center;verticalAlign=middle;whiteSpace=wrap;rounded=0;" vertex="1" parent="686_KzCgrmxFZ1wmUm0P-10">
          <mxGeometry x="330" y="50" width="500" height="30" as="geometry" />
        </mxCell>
      </root>
    </mxGraphModel>
  </diagram>
</mxfile>
